<svg width="2177" height="1403" xmlns="http://www.w3.org/2000/svg" xmlns:xlink="http://www.w3.org/1999/xlink" xml:space="preserve" overflow="hidden"><defs><clipPath id="clip0"><rect x="1842" y="421" width="2177" height="1403"/></clipPath></defs><g clip-path="url(#clip0)" transform="translate(-1842 -421)"><path d="M3617.93 1471.36C3456.83 1478.33 3172.71 1566.88 2946.29 1510.02 2788.69 1491.44 2701.57 1395.2 2528.05 1261.39 2376.23 1123.12 2290.35 926.847 2221.54 888.558" stroke="#042433" stroke-width="6.875" stroke-linecap="butt" stroke-linejoin="miter" stroke-miterlimit="8" stroke-opacity="1" fill="none" fill-rule="evenodd"/><path d="M2099.27 581.407C2112.05 586.565 2127.23 589.504 2139.88 590.929 2152.52 592.354 2164.44 593.527 2175.15 589.956 2185.87 586.386 2195.4 578.071 2204.18 569.505 2212.97 560.938 2219.24 549.241 2227.85 538.559 2236.46 527.876 2254.74 503.821 2255.87 505.408 2256.99 506.995 2240.04 537.398 2234.62 548.08 2229.2 558.763 2221.08 565.934 2223.34 569.505 2225.59 573.075 2238.75 570.695 2248.15 569.505 2257.55 568.315 2268.83 564.347 2279.73 562.363 2290.64 560.379 2315.07 556.412 2313.57 557.602 2312.06 558.792 2270.71 569.505 2270.71 569.505 2256.05 573.472 2239.13 576.646 2225.59 581.407 2212.06 586.168 2199.28 589.739 2189.5 598.07 2179.73 606.402 2170.33 622.669 2166.94 631.397 2163.56 640.125 2163.18 642.506 2169.2 650.441 2175.22 658.376 2188.37 673.055 2203.04 679.007 2217.7 684.958 2237.91 684.396 2257.17 686.148 2276.44 687.9 2316.74 687.93 2318.62 689.517 2320.5 691.104 2264.79 690.137 2268.45 695.67 2272.12 701.203 2356.03 723.905 2340.61 722.714 2325.2 721.524 2207.92 692.639 2175.97 688.529 2144.02 684.418 2155.53 692.588 2148.9 698.05 2142.26 703.512 2138.04 712.969 2136.16 721.301 2134.28 729.632 2135.42 737.408 2137.62 748.04 2139.82 758.672 2142.4 771.589 2149.34 785.092 2156.28 798.596 2165.48 810.041 2179.26 829.061 2193.05 848.082 2231.5 895.387 2232.05 899.214 2232.6 903.042 2196.89 867.473 2182.56 852.028 2168.22 836.583 2155.4 819.703 2146.03 806.545 2136.66 793.387 2133.01 780.448 2126.34 773.078 2119.67 765.708 2114.22 763.78 2106.04 762.323 2097.85 760.866 2085.5 761.164 2077.23 764.338 2068.96 767.512 2062.14 774.165 2056.41 781.367 2050.69 788.569 2045.89 795.253 2042.88 807.552 2039.87 819.851 2038.74 843.259 2038.37 855.162 2037.99 867.064 2042.5 881.347 2040.62 878.967 2038.74 876.586 2029.34 852.385 2027.09 840.879 2024.83 829.374 2028.97 812.313 2027.09 809.933 2025.21 807.552 2020.01 820.158 2015.81 826.596 2011.61 833.034 2007.52 838.643 2001.88 848.562 1996.24 858.48 1984.16 885.008 1981.97 886.108 1979.78 887.208 1984.23 868.164 1988.74 855.162 1993.25 842.16 2002.27 821.583 2009.04 808.094 2015.81 794.605 2023.33 784.235 2029.34 774.226 2035.36 764.217 2043.25 755.182 2045.13 748.04 2047.01 740.899 2045.89 734.551 2040.62 731.377 2035.36 728.203 2021.82 728.997 2013.55 728.997 2005.28 728.997 2004.15 728.6 1991 731.377 1977.84 734.154 1950.02 741.296 1934.6 745.66 1919.19 750.024 1908.57 752.831 1898.51 757.562 1888.44 762.294 1873.09 776.033 1874.21 774.049 1875.34 772.066 1895.59 753.169 1905.28 745.66 1914.97 738.151 1930.47 731.774 1932.35 728.997 1934.23 726.219 1916.56 728.997 1916.56 728.997 1910.54 728.997 1903.02 729.79 1896.25 728.997 1889.49 728.203 1882.72 726.219 1875.95 724.236 1869.18 722.252 1853.77 717.888 1855.65 717.094 1857.53 716.301 1874.45 719.078 1887.23 719.475 1900.01 719.871 1932.35 719.475 1932.35 719.475 1944 719.475 1947.38 721.855 1957.16 719.475 1966.93 717.094 1981.6 712.333 1991 705.192 2000.39 698.051 2009.37 684.744 2013.55 676.626 2017.73 668.509 2018.27 661.858 2016.08 656.486 2013.89 651.115 2007.58 646.532 2000.41 644.395 1993.25 642.258 1982.16 643.451 1973.07 643.665 1963.98 643.879 1953.8 643.757 1945.88 645.68 1937.97 647.603 1931.97 649.647 1925.58 655.202 1919.19 660.756 1909.04 678.213 1907.53 679.007 1906.03 679.8 1913.92 667.104 1916.56 659.963 1919.19 652.821 1924.83 639.729 1923.32 636.158 1921.82 632.587 1914.3 636.158 1907.53 638.538 1900.77 640.919 1890.61 646.87 1882.72 650.441 1874.82 654.011 1858.28 661.55 1860.16 659.963 1862.04 658.376 1884.6 647.267 1894 640.919 1903.4 634.571 1915.43 626.239 1916.56 621.875 1917.68 617.511 1907.53 616.718 1900.77 614.734 1894 612.75 1884.45 611.499 1875.95 609.973 1867.46 608.446 1846.79 606.767 1849.8 605.577 1852.8 604.387 1882.87 602.892 1894 602.831 1905.12 602.77 1907.91 603.625 1916.56 605.212 1925.2 606.799 1945.88 612.353 1945.88 612.353 1955.66 614.734 1964.66 617.969 1975.21 619.495 1985.75 621.021 1999.01 623.89 2009.16 621.51 2019.31 619.13 2030.49 613.086 2036.11 605.212 2041.73 597.338 2045.13 586.565 2042.88 574.266 2040.62 561.966 2029.72 544.113 2022.58 531.417 2015.43 518.721 2009.79 509.993 2000.02 498.09 1990.24 486.188 1965.43 463.97 1963.93 460.003 1962.42 456.035 1981.32 466.59 1991 474.285 2000.67 481.981 2016.88 506.569 2021.96 506.173 2027.04 505.776 2021.67 484.85 2021.47 471.905 2021.26 458.96 2019.32 428.202 2020.72 428.502 2022.11 428.803 2029.82 473.71 2029.82 473.71L2042.38 521.441C2044.64 528.979 2047.45 529.194 2050.83 541.493 2054.22 553.792 2055.11 553.331 2063.18 559.983 2071.25 566.635 2086.49 576.249 2099.27 581.407Z" stroke="#E59EDD" stroke-width="6.875" stroke-linecap="butt" stroke-linejoin="miter" stroke-miterlimit="8" stroke-opacity="1" fill="none" fill-rule="evenodd"/><path d="M2073.82 637.784C2065.92 644.853 2051.87 666.06 2058.01 674.897 2064.16 683.733 2099.28 694.337 2110.7 690.802 2122.11 687.268 2126.5 653.689 2126.5 653.689 2125.62 643.969 2105.43 632.482 2105.43 632.482 2097.52 630.714 2081.72 630.714 2073.82 637.784Z" stroke="#E59EDD" stroke-width="6.875" stroke-linecap="butt" stroke-linejoin="miter" stroke-miterlimit="8" stroke-opacity="1" fill="none" fill-rule="evenodd"/><path d="M159.895 89.2893C165.86 91.5406 183.761 88.6548 193.675 89.2893 202.375 90.528 204.837 97.92 210.566 96.3997 213.849 96.1089 216.678 86.7701 220.7 80.4013 223.872 74.0558 229.187 71.0473 234.212 60.8472 240.123 51.0703 256.169 21.7396 256.169 21.7396 261.243 13.6982 262.603 12.5934 266.303 12.8514 269.871 12.2717 276.824 19.5062 278.126 23.5172 279.75 29.1467 274.911 35.9739 269.681 43.071 264.525 50.2814 260.192 60.1222 254.48 67.9577 250.48 77.7171 244.534 88.5716 240.968 94.6222 237.59 102.622 234.212 115.954 234.212 115.954 234.698 121.108 239.481 120.635 242.657 126.62 245.09 131.811 251.026 140.012 254.48 146.173 256.017 151.456 251.912 157.382 256.169 158.617 260.3 156.636 269.318 155.337 278.126 149.728 284.783 146.171 295.528 135.888 300.083 130.175 305.147 124.917 305.903 121.896 308.528 117.731 311.437 113.585 313.718 106.482 318.662 103.51 323.448 100.548 337.241 99.9551 337.241 99.9551 340.555 99.9005 336.342 105.549 337.241 110.621 337.719 115.826 340.798 128.412 338.93 130.175 336.96 132.249 325.418 123.064 325.418 123.064 322.485 121.93 322.863 119.641 320.351 123.064 319.076 126.819 314.651 133.461 310.217 140.84 303.54 150.927 291.256 161.566 284.882 169.283 278.715 174.259 272.857 172.699 267.992 174.615 262.534 176.135 258.728 175.519 256.169 179.948 252.953 184.498 251.138 195.622 256.169 197.725 262.326 200.527 276.547 199.286 288.26 197.725 300.075 199.149 313.617 202.509 322.04 204.835 330.771 206.334 332.83 204.926 337.241 206.613 342.027 208.686 350.754 217.279 350.754 217.278 351.96 220.913 348.946 226.6 343.997 227.944 337.486 230.561 332.157 226.075 320.351 224.389 312.041 221.859 295.141 220.529 286.571 220.834 275.633 219.987 269.224 217.972 262.925 215.501 256.485 214.33 253.464 213.308 249.413 215.501 245.472 217.575 239.279 227.944 239.279 227.944 236.185 232.103 235.314 233.666 235.901 238.61 236.52 242.188 240.053 245.452 242.657 252.831 244 258.893 250.98 268.595 254.48 274.163 259.579 277.918 263.882 279.783 267.992 279.495 272.248 279.07 275.112 274.743 279.815 272.385 284.6 269.718 296.705 263.497 296.705 263.497 301.356 260.356 302.615 254.174 306.839 252.831 310.499 251.646 318.662 256.386 318.662 256.386 321.477 258.164 323.729 263.497 323.729 263.497 325.121 265.953 329.834 270.134 330.485 274.163 331.909 278.258 334.966 284.073 335.552 288.383 335.54 292.486 334.753 298.776 332.174 300.827 329.297 302.807 323.974 300.031 320.351 297.272 316.692 294.605 310.217 284.829 310.217 284.828 306.595 281.429 307.09 276.324 303.461 277.718 300.572 276.838 294.352 284.06 288.26 288.383 283.734 291.27 277.868 294.644 273.059 297.272 268.743 300.702 266.235 302.141 261.236 302.605 258.37 302.705 251.054 301.416 246.035 297.272 240.967 292.531 230.834 274.163 230.834 274.163 226.611 268.534 220.7 263.497 220.7 263.497 217.951 260.672 218.244 258.446 213.943 258.164 210.545 257.754 206.674 260.547 198.743 263.497 193.068 265.96 183.362 272.202 176.785 272.385 169.982 273.743 166.757 272.915 159.895 272.385 153.981 271.67 147.101 269.494 141.316 268.83 136.339 267.825 135.046 263.196 129.493 265.274 125.542 265.918 115.575 275.443 109.225 281.273 104.206 285.696 100.078 286.239 95.7129 290.161 92.515 293.978 87.4527 294.694 85.5787 302.605 83.5315 308.628 85.0161 325.754 85.5787 331.047 85.3466 338.196 88.9459 342.005 90.6457 347.045 91.9432 351.446 96.318 355.622 95.7129 359.488 95.1318 363.794 92.9791 369.603 85.5787 371.932 81.0658 374.49 69.7807 373.229 61.9326 371.932 54.9507 372.021 48.9141 371.193 45.0426 368.377 41.6734 364.99 39.9525 354.412 43.3535 352.378 46.0656 350.173 57.4177 352.774 61.9326 350.6 67.4688 348.303 74.4774 348.834 75.4447 343.49 78.6066 338.329 69.5624 325.274 68.6887 316.825 66.7366 309.99 67.3761 301.348 68.6887 293.716 72.1875 285.846 77.9787 276.487 83.8899 272.385 88.4355 268.323 95.2012 265.814 99.0911 261.719 102.714 258.909 112.615 259.203 112.603 254.608 111.54 250.351 102.072 240.863 99.0911 235.055 95.2141 229.537 99.2424 222.981 94.0238 222.611 89.2154 220.496 75.4848 228.029 66.9996 233.277 57.6803 240.042 43.4408 245.665 34.9084 249.276 27.2754 252.728 21.8697 255.894 16.3295 256.386 10.8577 258.091 3.83147 259.499 1.12829 258.164-1.9201 256.673 0.825171 249.684 2.81713 245.72 6.78472 242.881 12.1139 236.779 16.3295 235.055 22.2852 233.804 29.6068 232.948 34.9084 229.722 43.3161 227.614 52.9314 220.325 58.5545 217.278 64.6819 214.008 66.1791 213.074 70.3777 210.168 75.6375 206.629 81.6794 204.541 83.8899 199.502 87.0885 194.939 84.206 189.046 83.8899 183.503 83.9581 176.224 86.5839 164.537 85.5787 160.394 84.4021 154.773 77.9594 151.508 72.0668 149.728 66.364 147.446 59.8789 148.1 53.4877 146.173 45.172 141.337 35.4224 140.963 26.4635 135.508 17.7933 132.719 10.3527 129.489 6.19528 124.842 1.35954 120.897-0.24782 114.626 1.12829 112.398 1.64295 110.172 6.20692 106.611 14.6404 107.066 22.2411 107.955 46.7314 117.731 46.7314 117.731 57.7678 120.618 70.1678 125.9 77.1338 128.397 85.0159 130.767 94.0238 131.952 94.0238 131.952 98.1414 131.66 97.4378 130.011 102.469 126.62 109.038 122.356 117.939 115.082 122.737 110.621 128.01 105.747 132.331 102.442 131.182 96.3997 130.744 92.1715 123.098 84.0523 122.737 73.2906 119.572 62.9655 118.449 47.062 114.292 39.5159 112.039 30.0349 109.225 16.4067 109.225 16.4067 108.799 10.6081 108.133 8.29468 110.914 5.7409 114.418 2.29802 121.422-1.73128 126.115 0.408005 129.437 1.88733 131.772 9.70715 132.871 16.4067 135.929 22.7702 138.852 29.495 141.316 37.7381 144.087 49.1117 146.063 60.3207 148.072 69.7355 149.06 79.6051 150.857 85.8949 159.895 89.2893Z" stroke="#B4E5A2" stroke-width="6.875" stroke-linecap="butt" stroke-linejoin="miter" stroke-miterlimit="8" stroke-opacity="1" fill="none" fill-rule="evenodd" transform="matrix(-1 0 0 1 4011.5 1444.5)"/><path d="M3631.07 1424.9C3623.88 1427.98 3611.97 1433.66 3608.06 1437.35 3604.2 1441.59 3605.22 1447.04 3608.06 1449.81 3609.94 1451.29 3619.1 1455.84 3625.76 1453.37 3634.54 1450.71 3644.95 1448.19 3654.08 1446.25 3661.05 1442.91 3667.24 1440.84 3671.78 1439.13 3676.5 1435.87 3682.4 1426.68 3682.4 1426.68 3682.81 1422.89 3681.04 1419.11 3675.32 1417.78 3669.72 1416.59 3648.77 1419.56 3648.77 1419.56 3643.28 1420.59 3637.36 1423.12 3631.07 1424.9Z" stroke="#B4E5A2" stroke-width="6.875" stroke-linecap="butt" stroke-linejoin="miter" stroke-miterlimit="8" stroke-opacity="1" fill="none" fill-rule="evenodd"/><path d="M3646.87 1428.53C3643.3 1428.82 3636.16 1433.81 3636.16 1433.81 3633.31 1436.34 3629.44 1441.03 3630.81 1442.61 3632.63 1444.85 3641.07 1442.98 3645.09 1442.61 3649.55 1441.73 3657.57 1437.33 3657.57 1437.33 3659.66 1435.57 3657.57 1432.05 3657.57 1432.05 3656.49 1430.4 3649.66 1428.47 3646.87 1428.53Z" stroke="#B4E5A2" stroke-width="6.875" stroke-linecap="butt" stroke-linejoin="miter" stroke-miterlimit="8" stroke-opacity="1" fill="none" fill-rule="evenodd"/><path d="M3620.71 1453.45C3619.83 1457.82 3627 1484.42 3631.28 1492.79 3633.92 1503.82 3636.56 1519.62 3636.56 1519.62 3636.27 1524.98 3629.52 1524.98 3629.52 1524.98 3628.6 1527.62 3627.7 1530.16 3629.52 1532.14 3631.12 1535.34 3635.25 1536.78 3641.84 1537.5 3649.88 1539.15 3662.97 1535.72 3671.78 1532.14 3680 1529.75 3691.15 1523.19 3691.15 1523.19 3697.44 1519.79 3700.65 1517.64 3701.72 1512.46 3703.48 1508.29 3701.72 1498.16 3701.72 1498.16 3700.84 1495.77 3696.43 1498.16 3696.43 1498.16 3694.38 1499.35 3689.39 1505.31 3689.39 1505.31 3687.45 1508.18 3687.05 1511.72 3682.35 1514.25 3678.14 1515.83 3674.42 1518.67 3668.26 1519.62 3662.54 1520.69 3653.52 1521.27 3647.13 1521.41 3641.55 1521.41 3634.8 1519.62 3634.8 1519.62 3632.45 1517.83 3633.04 1510.68 3633.04 1510.68 3634.51 1509.19 3643.6 1510.68 3643.6 1510.68 3648.25 1510.69 3653.91 1512.37 3659.45 1510.68 3663.74 1511.24 3668.53 1507.69 3673.54 1507.1 3677.94 1505.31 3685.87 1499.95 3685.87 1499.95 3688.51 1497.26 3689.39 1491 3689.39 1491 3689.62 1487.92 3688.64 1480.41 3685.87 1480.27 3683.23 1480.57 3673.54 1492.79 3673.54 1492.79 3669.97 1495.56 3670.22 1498.73 3666.5 1499.95 3664.01 1500.77 3657.24 1501.45 3652.41 1501.73 3647.71 1502.03 3638.32 1501.73 3638.32 1501.73 3634.51 1501.44 3629.52 1499.95 3629.52 1499.95 3627.63 1497.89 3625.32 1491.22 3629.52 1489.22 3633.74 1488.65 3645.91 1491.72 3654.17 1491 3661.36 1488.79 3665.67 1484.81 3671.78 1482.06 3677.36 1478.19 3687.63 1467.76 3687.63 1467.76 3689.39 1464.18 3682.35 1460.6 3682.35 1460.6 3681.05 1459.26 3684.75 1459.94 3682.35 1462.39 3679.96 1464.59 3673.96 1471.55 3666.5 1473.12 3660.63 1475.21 3647.13 1474.91 3647.13 1474.91 3642.23 1475.72 3634.79 1475.37 3627.76 1476.7 3623.28 1475.77 3620.81 1469.78 3622.47 1467.76 3624.42 1465.92 3633.59 1468.17 3640.08 1467.76 3647.63 1467.62 3655.05 1464.48 3661.21 1462.39 3667.08 1460.31 3675.3 1455.24 3675.3 1455.24 3678.53 1453.75 3680.59 1453.45 3680.59 1453.45 3680.83 1451.27 3677.93 1444.06 3675.3 1444.51 3670.25 1445.36 3665.62 1452.91 3659.45 1455.24 3654.71 1457.3 3649.05 1459.5 3641.84 1458.81 3635.92 1459.48 3622.3 1447.86 3620.71 1453.45Z" stroke="#B4E5A2" stroke-width="6.875" stroke-linecap="butt" stroke-linejoin="miter" stroke-miterlimit="8" stroke-opacity="1" fill="none" fill-rule="evenodd"/><path d="M3677.5 1435.5C3679.78 1449.83 3685.68 1465.3 3687.31 1474.31 3689.93 1483.37 3693.2 1489.83 3693.2 1489.83 3694.83 1494.36 3697.12 1501.48 3697.12 1501.48 3697.78 1503.74 3697.46 1503.55 3697.12 1503.42" stroke="#B4E5A2" stroke-width="6.875" stroke-linecap="butt" stroke-linejoin="miter" stroke-miterlimit="8" stroke-opacity="1" fill="none" fill-rule="evenodd"/><path d="M3664.43 1531.55C3665.69 1539.45 3667.59 1547.81 3671.13 1556.81 3672.66 1565.51 3674.81 1576.58 3677.59 1584.96 3679.58 1591.45 3681.21 1595.71 3683.65 1597.1 3685.9 1599.7 3693.47 1600.19 3694.22 1598.01 3695.4 1595.7 3692.17 1587 3690.29 1581.69 3689.77 1576.62 3690.03 1573.13 3688 1566.97 3686.46 1559.94 3681.74 1549.47 3679.41 1543 3677.95 1536.66 3676.4 1533.67 3677 1529.72" stroke="#B4E5A2" stroke-width="6.875" stroke-linecap="butt" stroke-linejoin="miter" stroke-miterlimit="8" stroke-opacity="1" fill="none" fill-rule="evenodd"/><path d="M3617.83 1454.16C3616.72 1459.76 3626.55 1487.55 3631.47 1499.07 3633.93 1509.06 3629.1 1514.32 3635.36 1516.64 3643.68 1519.36 3670.96 1515.39 3680.16 1512.74 3690.22 1509.16 3695.74 1495.16 3695.74 1495.16 3697.71 1490.77 3695.22 1487.72 3691.84 1487.35 3687.35 1488.82 3680.61 1497.67 3672.37 1499.07 3663.93 1502.32 3641.2 1506.88 3641.2 1506.88 3634.71 1507.53 3633.41 1502.98 3633.41 1502.98 3631.74 1501.99 3627.02 1501.49 3631.47 1499.07 3636.34 1496.56 3651.09 1495.83 3658.73 1493.21 3666.85 1490.93 3680.16 1485.4 3680.16 1485.4 3684.7 1482.47 3686 1475.64 3686 1475.64 3687.16 1472.56 3690.9 1466.4 3686 1467.82 3683.09 1469.11 3665.38 1478.57 3658.73 1479.54 3650.46 1483.42 3644.67 1482.65 3639.26 1483.45 3633.74 1484.1 3625.62 1483.45 3625.62 1483.45 3622.92 1482.62 3620.76 1479.58 3623.68 1477.59 3627.58 1476.25 3633.43 1475.04 3639.26 1473.68 3645.08 1472.96 3657.99 1468.54 3664.58 1465.87 3671.39 1463.27 3680.16 1458.06 3680.16 1458.06 3679.26 1455.41 3681.04 1453.64 3680.16 1450.25 3679.36 1445.41 3681.2 1437.36 3676.26 1438.53 3670.74 1438.35 3657.4 1447.96 3647.05 1454.16 3638.41 1458.78 3620.01 1446.84 3617.83 1454.16Z" stroke="#B4E5A2" stroke-width="6.875" stroke-linecap="butt" stroke-linejoin="miter" stroke-miterlimit="8" stroke-opacity="1" fill="none" fill-rule="evenodd"/><path d="M3670.16 1544.5C3665.84 1549.91 3662.71 1554.84 3662.5 1560.01 3662.5 1565.17 3670.16 1575.51 3670.16 1575.51 3672.34 1578.92 3674.67 1581.99 3677.81 1581.33 3680.19 1580.62 3688.11 1573.69 3689.3 1569.7 3690.57 1566.47 3685.47 1561.94 3685.47 1561.94 3683.23 1561.94 3675.9 1569.7 3675.9 1569.7 3672.71 1570.99 3666.33 1569.7 3666.33 1569.7 3665.14 1568.88 3664.75 1568.11 3668.24 1565.82 3671.75 1563.56 3687.38 1556.13 3687.38 1556.13 3690.07 1553.24 3687.36 1549.19 3683.55 1550.31 3680.24 1551.9 3672.27 1554.45 3664.41 1560.01" stroke="#B4E5A2" stroke-width="6.875" stroke-linecap="butt" stroke-linejoin="miter" stroke-miterlimit="8" stroke-opacity="1" fill="none" fill-rule="evenodd"/><path d="M3818.5 1651.88C3825.34 1659.83 3832.18 1667.78 3841.95 1670.96 3851.72 1674.14 3869.7 1674.54 3877.12 1670.96 3884.55 1667.39 3885.52 1658.44 3886.5 1649.5" stroke="#8ED973" stroke-width="6.875" stroke-linecap="butt" stroke-linejoin="miter" stroke-miterlimit="8" stroke-opacity="1" fill="none" fill-rule="evenodd"/><path d="M3789.5 1611.5C3795 1603.34 3800.5 1595.18 3807.5 1593.69 3814.5 1592.21 3826 1599.63 3831.5 1602.6 3837 1605.56 3838.75 1608.53 3840.5 1611.5" stroke="#8ED973" stroke-width="6.875" stroke-linecap="butt" stroke-linejoin="miter" stroke-miterlimit="8" stroke-opacity="1" fill="none" fill-rule="evenodd"/><path d="M3858.5 1602.63C3864.09 1597.45 3869.67 1592.28 3876.78 1590.8 3883.89 1589.32 3901.15 1593.76 3901.15 1593.76 3905.22 1597.21 3903.19 1604.35 3901.15 1611.5" stroke="#8ED973" stroke-width="6.875" stroke-linecap="butt" stroke-linejoin="miter" stroke-miterlimit="8" stroke-opacity="1" fill="none" fill-rule="evenodd"/></g></svg>