<svg width="1018" height="596" xmlns="http://www.w3.org/2000/svg" xmlns:xlink="http://www.w3.org/1999/xlink" xml:space="preserve" overflow="hidden"><defs><clipPath id="clip0"><rect x="334" y="151" width="1018" height="596"/></clipPath></defs><g clip-path="url(#clip0)" transform="translate(-334 -151)"><path d="M1204.36 616.061C1038.68 631.51 766.968 554.232 597.476 443.454 539.139 405.325 498.264 366.471 479.642 331.444" stroke="#042433" stroke-width="3.4375" stroke-linecap="butt" stroke-linejoin="miter" stroke-miterlimit="8" stroke-opacity="1" fill="none" fill-rule="evenodd"/><path d="M431.241 213.286C436.09 215.236 441.845 216.346 446.642 216.885 451.439 217.423 455.958 217.867 460.024 216.517 464.089 215.168 467.703 212.026 471.035 208.788 474.366 205.551 476.745 201.13 480.012 197.093 483.279 193.056 490.211 183.965 490.639 184.565 491.066 185.165 484.635 196.654 482.579 200.692 480.523 204.729 477.445 207.439 478.301 208.788 479.156 210.138 484.148 209.238 487.713 208.788 491.278 208.338 495.556 206.839 499.692 206.089 503.827 205.34 513.096 203.84 512.526 204.29 511.956 204.74 496.269 208.788 496.269 208.788 490.707 210.288 484.29 211.487 479.156 213.286 474.023 215.086 469.174 216.435 465.466 219.584 461.759 222.733 458.193 228.88 456.91 232.179 455.627 235.477 455.484 236.377 457.766 239.376 460.047 242.374 465.039 247.922 470.6 250.171 476.162 252.42 483.828 252.208 491.135 252.87 498.443 253.532 513.731 253.543 514.444 254.143 515.157 254.743 494.023 254.378 495.413 256.469 496.803 258.56 528.631 267.139 522.784 266.689 516.937 266.239 472.452 255.323 460.333 253.77 448.213 252.216 452.582 255.304 450.065 257.368 447.548 259.432 445.945 263.006 445.232 266.155 444.519 269.304 444.953 272.242 445.787 276.26 446.621 280.278 447.601 285.16 450.234 290.263 452.867 295.366 456.354 299.692 461.582 306.88 466.811 314.068 481.397 331.945 481.605 333.392 481.814 334.839 468.27 321.396 462.832 315.559 457.395 309.722 452.532 303.343 448.978 298.37 445.424 293.398 444.037 288.508 441.509 285.722 438.98 282.937 436.913 282.209 433.808 281.658 430.703 281.108 426.018 281.22 422.881 282.42 419.744 283.619 417.156 286.133 414.984 288.855 412.812 291.577 410.991 294.103 409.85 298.751 408.709 303.399 408.282 312.245 408.139 316.744 407.996 321.242 409.708 326.639 408.995 325.74 408.282 324.84 404.716 315.694 403.861 311.346 403.005 306.998 404.574 300.55 403.861 299.651 403.148 298.751 401.176 303.515 399.583 305.948 397.989 308.381 396.438 310.501 394.299 314.249 392.16 317.998 387.579 328.023 386.748 328.439 385.918 328.855 387.604 321.657 389.315 316.744 391.026 311.83 394.449 304.054 397.016 298.956 399.583 293.858 402.435 289.939 404.717 286.156 406.998 282.374 409.993 278.959 410.706 276.26 411.419 273.561 410.991 271.162 408.995 269.963 406.998 268.763 401.864 269.063 398.727 269.063 395.59 269.063 395.162 268.913 390.171 269.963 385.18 271.013 374.627 273.711 368.78 275.361 362.933 277.01 358.908 278.071 355.09 279.859 351.272 281.647 345.446 286.839 345.874 286.09 346.302 285.34 353.982 278.198 357.657 275.361 361.332 272.523 367.211 270.113 367.924 269.063 368.637 268.014 361.935 269.063 361.935 269.063 359.653 269.063 356.801 269.363 354.234 269.063 351.667 268.763 349.1 268.014 346.534 267.264 343.967 266.514 338.12 264.865 338.833 264.565 339.546 264.265 345.963 265.315 350.812 265.465 355.66 265.615 367.924 265.465 367.924 265.465 372.345 265.465 373.629 266.364 377.336 265.465 381.044 264.565 386.606 262.766 390.171 260.067 393.736 257.368 397.141 252.339 398.727 249.272 400.313 246.204 400.518 243.69 399.687 241.66 398.857 239.63 396.463 237.898 393.744 237.091 391.024 236.283 386.819 236.734 383.372 236.815 379.924 236.896 376.06 236.85 373.058 237.576 370.056 238.303 367.782 239.076 365.357 241.175 362.933 243.274 359.083 249.871 358.512 250.171 357.942 250.471 360.937 245.673 361.935 242.974 362.933 240.275 365.072 235.327 364.502 233.978 363.931 232.628 361.079 233.978 358.512 234.877 355.946 235.777 352.095 238.026 349.1 239.376 346.106 240.725 339.831 243.574 340.544 242.974 341.257 242.374 349.814 238.176 353.379 235.777 356.944 233.378 361.507 230.229 361.935 228.58 362.363 226.931 358.512 226.631 355.946 225.881 353.379 225.131 349.756 224.659 346.534 224.082 343.311 223.505 335.472 222.87 336.612 222.421 337.753 221.971 349.158 221.406 353.379 221.383 357.599 221.36 358.655 221.683 361.935 222.283 365.215 222.882 373.058 224.982 373.058 224.982 376.766 225.881 380.181 227.104 384.181 227.68 388.182 228.257 393.211 229.342 397.062 228.442 400.912 227.542 405.152 225.258 407.283 222.283 409.415 219.307 410.706 215.236 409.85 210.587 408.995 205.939 404.859 199.192 402.15 194.394 399.44 189.596 397.301 186.298 393.593 181.799 389.886 177.301 380.474 168.905 379.903 167.405 379.333 165.906 386.502 169.895 390.171 172.803 393.84 175.711 399.991 185.004 401.917 184.854 403.843 184.704 401.807 176.796 401.729 171.903 401.65 167.011 400.916 155.387 401.444 155.501 401.972 155.614 404.897 172.586 404.897 172.586L409.662 190.624C410.517 193.473 411.585 193.554 412.868 198.202 414.151 202.85 414.489 202.676 417.551 205.19 420.613 207.704 426.392 211.337 431.241 213.286Z" stroke="#042433" stroke-width="3.4375" stroke-linecap="butt" stroke-linejoin="miter" stroke-miterlimit="8" stroke-opacity="1" fill="none" fill-rule="evenodd"/><path d="M421.18 234.909C418.132 237.618 412.713 245.748 415.084 249.135 417.454 252.523 431.001 256.587 435.404 255.232 439.807 253.878 441.5 241.006 441.5 241.006 441.161 237.28 433.372 232.876 433.372 232.876 430.324 232.199 424.228 232.199 421.18 234.909Z" stroke="#042433" stroke-width="3.4375" stroke-linecap="butt" stroke-linejoin="miter" stroke-miterlimit="8" stroke-opacity="1" fill="none" fill-rule="evenodd"/><path d="M60.1314 33.7526C62.7867 34.8589 68.8779 33.5989 72.8352 33.7526 76.2196 34.2448 77.4105 37.003 79.187 36.4405 80.7086 36.0493 81.4232 33.1478 82.998 30.3928 84.2465 28.0246 85.9841 26.7577 88.0794 23.001 90.3027 19.3053 96.3367 8.21776 96.3367 8.21776 98.3242 5.19032 98.6934 4.81974 100.148 4.85799 101.519 4.92546 104.263 7.15293 104.594 8.88965 105.353 11.1009 103.189 13.551 101.418 16.2815 99.0277 18.9336 98.1402 22.9653 95.7015 25.6889 94.1098 29.2471 91.9448 33.3102 90.6201 35.7686 89.3498 38.7924 88.0798 43.8326 88.0794 43.8323 88.3782 45.6787 90.0137 45.8238 91.2553 47.8639 92.3582 49.7959 94.603 53.0655 95.7015 55.2557 96.1645 57.2443 94.7119 59.4433 96.3367 59.9593 97.8285 60.0517 101.343 58.6841 104.594 56.5995 107.161 55.141 111.538 51.6654 112.852 49.2081 114.754 47.2776 115.106 46.0395 116.028 44.5042 117.125 42.932 117.667 40.2683 119.839 39.1284 121.638 38.0087 126.826 37.7843 126.826 37.7843 128.05 37.8896 126.557 39.9031 126.826 41.8163 127.092 43.859 128.152 48.5744 127.461 49.2081 126.72 49.9922 122.379 46.5202 122.379 46.5202 121.409 46.133 121.417 45.1988 120.474 46.5202 119.964 47.9202 118.406 50.4335 116.663 53.2397 114.195 56.9189 109.641 61.4193 107.135 63.9913 104.589 66.0431 102.728 65.0821 100.783 66.0073 98.5708 66.5204 97.1473 66.4988 96.3367 68.023 95.3525 69.6161 94.493 74.079 96.3367 74.7429 99.3232 75.6688 104.135 74.8248 108.405 74.7429 113.271 75.4029 117.772 75.9983 121.109 77.4308 124.356 77.9966 125.074 77.368 126.826 78.1027 128.625 78.8864 131.907 82.1347 131.907 82.1343 132.436 83.5828 131.039 85.4053 129.367 86.1664 126.842 87.2312 124.787 85.4313 120.474 84.8222 117.273 83.9476 111.264 83.8491 107.77 83.4785 103.978 83.0087 101.221 82.0073 98.8774 81.4625 96.4694 81.0359 95.4154 80.5293 93.796 81.4625 92.3139 82.2469 89.9853 86.1664 89.985 86.1664 89.091 87.6397 88.4939 88.3235 88.7146 90.198 88.9763 91.2575 90.1935 93.0303 91.2553 95.5738 91.8301 97.8601 94.4355 101.455 95.7015 103.637 97.5025 105.15 99.4608 105.745 100.783 105.654 102.459 105.2 103.449 103.901 105.23 102.966 107.029 101.958 111.581 99.6058 111.581 99.6058 113.586 98.6251 113.888 96.0581 115.392 95.5738 116.769 95.126 119.839 96.9179 119.839 96.9179 120.897 97.5898 121.744 99.6058 121.744 99.6058 122.243 100.513 123.967 102.108 124.285 103.637 124.671 105.171 125.626 107.535 126.19 109.013 126.246 110.635 125.882 113.049 124.92 113.717 123.69 114.681 121.775 113.571 120.474 112.373 119.097 111.365 116.663 107.67 116.663 107.67 115.442 106.409 115.493 104.626 114.122 104.982 112.819 105.065 110.35 107.74 108.405 109.013 106.538 110.219 104.735 111.178 102.689 112.373 101.058 113.625 100.183 114.157 98.2426 114.389 97.0725 114.422 94.3902 113.657 92.5257 112.373 90.6198 110.581 86.8091 103.638 86.8091 103.637 85.2213 101.51 82.9984 99.6058 82.998 99.6058 82.0228 98.3967 81.9667 97.649 80.4573 97.5898 79.3505 97.1651 77.5572 98.5468 74.7408 99.6058 72.4689 100.512 68.9293 102.546 66.4831 102.966 63.9108 103.474 62.7824 103.162 60.1314 102.966 57.9009 102.413 55.1966 101.963 53.1444 101.622 51.2562 101.209 51.1106 99.485 48.6982 100.278 47.095 100.641 43.3929 104.289 41.0761 106.325 39.0469 107.933 37.7845 108.074 35.9943 109.686 35.004 111.203 32.8986 111.336 32.1833 114.389 31.5237 116.911 31.9148 122.713 32.1833 125.141 32.1269 127.851 33.4385 128.984 34.0888 131.188 34.623 132.892 36.1191 134.552 35.9943 135.892 36.1248 137.73 34.6007 139.769 32.1833 140.596 30.501 141.569 26.0965 140.992 23.2908 140.596 20.7196 140.465 18.4661 140.276 16.9391 139.252 15.4114 137.849 15.1863 134.231 16.3039 133.204 17.3043 132.516 21.3598 133.16 23.2908 132.532 25.3836 131.616 28.1364 131.633 28.3722 129.845 29.1293 127.794 25.4706 123.378 25.8315 119.765 25.0429 117.278 25.3427 113.915 25.8315 111.029 27.3341 107.964 29.258 104.418 31.5481 102.966 33.2301 101.497 35.7621 100.431 37.2647 98.934 38.6796 97.8648 42.3666 98.1748 42.3461 96.2457 42.1894 94.5938 38.3377 91.2499 37.2647 88.8543 35.9634 86.8054 36.9121 84.5227 35.3592 84.1504 33.3951 83.8786 28.0739 86.0134 25.1964 88.1824 21.5226 89.9999 16.6494 93.7292 13.1277 94.23 10.3181 95.5049 8.23787 96.5809 6.14075 96.9179 4.16728 97.6822 1.48064 98.0553 0.424169 97.5898-0.844384 97.0702 0.19483 94.3603 1.05934 92.8859 2.1381 91.5194 4.53789 89.5207 6.14075 88.8543 8.3529 88.3162 10.9321 88.0269 13.1277 86.8382 16.1511 85.9546 19.8677 83.3143 22.0205 82.1343 24.4332 80.8923 24.9455 80.407 26.4667 79.4468 28.098 78.3026 30.7235 77.4138 31.5481 75.4148 32.4985 73.7221 31.5916 71.5863 31.5481 69.3671 31.5625 66.5746 32.7257 62.452 32.1833 60.6315 31.5481 58.5047 29.3579 57.2288 27.1019 56.5995 24.7427 55.7902 22.6654 56.0381 20.115 55.2557 17.0969 53.8066 13.0234 52.7577 9.9518 51.2237 6.60877 50.2505 3.87288 49.2019 2.3297 47.1921 0.714258 45.7317-0.0916637 43.2899 0.424169 42.4882 0.797294 41.4977 2.26966 40.3343 5.50557 40.4721 8.36404 40.8088 17.5743 44.5042 17.5743 44.5042 22.0014 45.2955 26.8179 47.5323 29.0074 48.5358 31.9716 49.4318 35.3592 49.88 35.3592 49.88 36.8481 49.7713 36.6752 49.1677 38.535 47.8639 40.5143 46.4487 44.3433 43.063 46.1575 41.8163 48.1878 39.9901 49.4578 38.773 49.3334 36.4405 49.2176 34.6182 46.6162 31.6034 46.1575 27.7049 44.8642 23.5516 43.9946 18.3519 42.9813 14.9373 42.134 11.3531 41.0765 6.20175 41.0761 6.20175 41.0089 3.89418 40.6936 3.04152 41.7113 2.17009 42.8936 1.0219 45.8157-0.600798 47.4279 0.154079 48.4513 0.513114 49.356 3.73577 49.9686 6.20175 51.5826 8.73376 52.2576 11.5191 53.1444 14.2654 54.1218 17.8875 55.3163 22.4049 55.6851 26.3608 56.2384 29.9638 56.8584 32.4813 60.1314 33.7526Z" stroke="#042433" stroke-width="3.4375" stroke-linecap="butt" stroke-linejoin="miter" stroke-miterlimit="8" stroke-opacity="1" fill="none" fill-rule="evenodd" transform="matrix(-1 0 0 1 1347.5 603.5)"/><path d="M1204.13 596.377C1201.31 597.607 1196.95 599.864 1195.46 601.221 1193.92 603.262 1194.43 604.957 1195.46 606.065 1196.19 606.66 1199.56 608.297 1202.13 607.449 1205.27 606.737 1209.38 605.443 1212.8 604.681 1215.54 603.557 1217.72 602.842 1219.46 601.913 1221.24 600.644 1223.46 597.069 1223.46 597.069 1223.52 595.463 1223.16 594.4 1220.8 593.609 1218.69 593.148 1210.8 594.301 1210.8 594.301 1208.78 594.615 1206.64 595.347 1204.13 596.377Z" stroke="#042433" stroke-width="3.4375" stroke-linecap="butt" stroke-linejoin="miter" stroke-miterlimit="8" stroke-opacity="1" fill="none" fill-rule="evenodd"/><path d="M1210.35 597.51C1209.07 597.627 1206.52 599.622 1206.52 599.622 1205.53 600.609 1204.21 602.415 1204.61 603.142 1205.32 604.197 1208.36 603.194 1209.71 603.142 1211.3 602.791 1214.17 601.03 1214.17 601.03 1214.91 600.326 1214.17 598.918 1214.17 598.918 1213.76 598.303 1211.48 597.441 1210.35 597.51Z" stroke="#042433" stroke-width="3.4375" stroke-linecap="butt" stroke-linejoin="miter" stroke-miterlimit="8" stroke-opacity="1" fill="none" fill-rule="evenodd"/><path d="M1200.58 606.868C1200.56 608.061 1203.22 618.1 1204.57 621.674 1205.57 625.825 1206.57 631.77 1206.57 631.77 1206.46 633.789 1203.91 633.789 1203.91 633.789 1203.54 634.739 1203.37 635.806 1203.91 636.481 1204.61 637.455 1206.16 638.098 1208.57 638.5 1211.29 638.603 1216.55 637.848 1219.89 636.481 1222.99 635.583 1227.21 633.116 1227.21 633.116 1229.46 631.845 1230.69 630.86 1231.2 629.078 1231.87 627.507 1231.2 623.693 1231.2 623.693 1230.87 622.796 1229.21 623.693 1229.21 623.693 1228.43 624.142 1226.54 626.385 1226.54 626.385 1226.02 627.556 1225.48 628.819 1223.88 629.75 1222.27 630.322 1221.08 631.581 1218.56 631.77 1216.51 632.081 1213.22 632.35 1210.57 632.443 1208.46 632.443 1205.91 631.77 1205.91 631.77 1205.02 631.097 1205.24 628.404 1205.24 628.405 1205.8 627.844 1209.23 628.405 1209.23 628.405 1211.36 628.439 1213.1 629.091 1215.23 628.405 1216.96 628.438 1218.68 627.325 1220.55 627.058 1222.22 626.385 1225.21 624.366 1225.21 624.366 1226.21 623.357 1226.54 621.001 1226.54 621.001 1226.67 619.872 1226.29 617.099 1225.21 616.963 1224.21 617.076 1220.55 621.675 1220.55 621.674 1219.2 622.717 1219.23 623.825 1217.89 624.366 1216.74 624.809 1214.58 624.961 1212.56 625.039 1210.79 625.152 1207.24 625.039 1207.24 625.039 1205.8 624.927 1203.91 624.366 1203.91 624.366 1203.28 623.588 1202.3 621.189 1203.91 620.328 1205.5 620.096 1209.9 621.188 1213.23 621.001 1215.91 620.44 1217.67 618.872 1219.89 617.636 1221.99 616.179 1225.88 612.253 1225.88 612.252 1226.54 610.906 1223.88 609.56 1223.88 609.56 1223.47 609.142 1224.74 609.242 1223.88 610.233 1223.24 611.18 1220.75 613.692 1217.89 614.271 1215.67 615.056 1210.57 614.944 1210.57 614.944 1208.23 615.716 1205.09 614.758 1203.24 615.617 1201.58 615.245 1200.62 613.014 1201.25 612.252 1201.96 611.5 1205.44 612.317 1207.9 612.252 1210.42 611.969 1213.51 611.021 1215.89 610.233 1218.11 609.448 1221.22 607.542 1221.22 607.541 1222.44 606.98 1223.22 606.868 1223.22 606.868 1223.35 605.978 1222.19 603.331 1221.22 603.503 1219.31 603.823 1217.76 606.685 1215.23 607.541 1213.52 608.285 1211.32 609.178 1208.57 608.887 1206.32 609.135 1201.01 604.845 1200.58 606.868Z" stroke="#042433" stroke-width="3.4375" stroke-linecap="butt" stroke-linejoin="miter" stroke-miterlimit="8" stroke-opacity="1" fill="none" fill-rule="evenodd"/><path d="M1221.5 600.5C1222.6 606.053 1224.85 611.898 1225.42 615.339 1226.47 618.801 1227.78 621.275 1227.78 621.275 1228.43 623.006 1229.35 625.726 1229.35 625.726 1229.63 626.603 1229.5 626.498 1229.35 626.468" stroke="#042433" stroke-width="3.4375" stroke-linecap="butt" stroke-linejoin="miter" stroke-miterlimit="8" stroke-opacity="1" fill="none" fill-rule="evenodd"/><path d="M1216.6 636.422C1216.87 639.351 1217.43 642.539 1219.13 645.964 1219.44 649.168 1220.52 653.433 1221.57 656.595 1222.34 659.102 1222.91 660.605 1223.86 661.18 1224.82 662.064 1227.5 662.419 1227.85 661.521 1228.42 661.074 1227.27 657.396 1226.37 655.36 1226.31 653.471 1226.23 652.183 1225.5 649.801 1225.1 646.756 1223.18 643.214 1222.26 640.746 1221.79 638.324 1221.35 637.115 1221.35 635.731" stroke="#042433" stroke-width="3.4375" stroke-linecap="butt" stroke-linejoin="miter" stroke-miterlimit="8" stroke-opacity="1" fill="none" fill-rule="evenodd"/><path d="M1199.62 607.445C1198.88 610.012 1202.6 619.999 1204.63 624.501 1205.43 628.198 1203.48 630.299 1206.06 631.175 1209.47 633.006 1218.93 630.915 1222.5 629.692 1226.19 628.332 1228.22 623.018 1228.22 623.018 1228.99 621.084 1228.11 620.037 1226.79 620.052 1224.86 621.013 1222.73 623.36 1219.64 624.501 1216.54 625.737 1208.2 627.467 1208.2 627.467 1205.82 627.715 1205.34 625.984 1205.34 625.984 1204.71 625.696 1203.03 625.277 1204.63 624.501 1206.66 623.208 1212.38 623.682 1214.64 622.276 1217.61 621.411 1222.5 619.31 1222.5 619.31 1224.17 618.198 1224.64 615.602 1224.64 615.602 1225.1 614.41 1226.36 612.283 1224.64 612.636 1223.17 612.963 1217.35 616.308 1214.64 617.085 1211.64 618.454 1209.48 618.274 1207.49 618.568 1205.46 618.816 1202.48 618.568 1202.48 618.568 1201.36 618.433 1200.82 617.029 1201.77 616.344 1203.15 615.824 1205.36 615.366 1207.49 614.861 1209.87 614.274 1214.37 612.911 1216.78 611.894 1219.28 610.906 1222.5 608.928 1222.5 608.928 1222.42 607.971 1222.64 606.57 1222.5 605.962 1222.25 604.602 1222.87 601.051 1221.07 601.512 1219.05 601.38 1214.1 605.223 1210.35 607.445 1207.05 609.081 1200.02 604.831 1199.62 607.445Z" stroke="#042433" stroke-width="3.4375" stroke-linecap="butt" stroke-linejoin="miter" stroke-miterlimit="8" stroke-opacity="1" fill="none" fill-rule="evenodd"/><path d="M1219.34 641.5C1217.85 643.49 1216.56 645.413 1216.5 647.367 1216.5 649.323 1219.34 653.234 1219.34 653.234 1220.15 654.524 1221.04 655.516 1222.17 655.434 1223.01 655.18 1225.96 652.346 1226.42 651.034 1226.9 649.811 1225.01 648.1 1225.01 648.1 1224.18 648.1 1221.46 651.034 1221.46 651.034 1220.28 651.523 1217.92 651.034 1217.92 651.034 1217.49 650.706 1217.35 650.453 1218.63 649.567 1219.93 648.712 1225.72 645.9 1225.72 645.9 1226.82 644.548 1225.71 643.334 1224.3 643.7 1223.21 644.564 1220.13 645.183 1217.21 647.367" stroke="#042433" stroke-width="3.4375" stroke-linecap="butt" stroke-linejoin="miter" stroke-miterlimit="8" stroke-opacity="1" fill="none" fill-rule="evenodd"/><path d="M1275.5 682.394C1278.01 685.376 1280.53 688.357 1284.12 689.549 1287.71 690.742 1294.32 690.891 1297.05 689.549 1299.78 688.208 1300.14 684.854 1300.5 681.5" stroke="#042433" stroke-width="3.4375" stroke-linecap="butt" stroke-linejoin="miter" stroke-miterlimit="8" stroke-opacity="1" fill="none" fill-rule="evenodd"/><path d="M1264.5 666.5C1266.55 663.78 1268.6 661.059 1271.21 660.564 1273.81 660.07 1278.1 662.543 1280.15 663.532 1282.2 664.521 1282.85 665.511 1283.5 666.5" stroke="#042433" stroke-width="3.4375" stroke-linecap="butt" stroke-linejoin="miter" stroke-miterlimit="8" stroke-opacity="1" fill="none" fill-rule="evenodd"/><path d="M1290.5 663.121C1292.61 661.15 1294.72 659.178 1297.41 658.615 1300.09 658.052 1306.61 659.741 1306.61 659.741 1308.15 661.056 1307.38 663.778 1306.61 666.5" stroke="#042433" stroke-width="3.4375" stroke-linecap="butt" stroke-linejoin="miter" stroke-miterlimit="8" stroke-opacity="1" fill="none" fill-rule="evenodd"/></g></svg>