<svg width="2604" height="1242" xmlns="http://www.w3.org/2000/svg" xmlns:xlink="http://www.w3.org/1999/xlink" xml:space="preserve" overflow="hidden"><defs><clipPath id="clip0"><rect x="806" y="550" width="2604" height="1242"/></clipPath></defs><g clip-path="url(#clip0)" transform="translate(-806 -550)"><path d="M3025.76 1473.42C2501.43 1685.6 1712.28 1543.56 1263.16 1156.15 1221.35 1120.08 1183.37 1082.55 1149.55 1043.88" stroke="#042433" stroke-width="4.58333" stroke-linecap="butt" stroke-linejoin="miter" stroke-miterlimit="8" stroke-opacity="1" fill="none" fill-rule="evenodd"/><path d="M1072.98 720.209C1084.84 727.246 1099.41 732.455 1111.71 735.785 1124.01 739.114 1135.61 742.083 1146.76 740.185 1157.91 738.287 1168.6 731.523 1178.59 724.397 1188.58 717.271 1196.56 706.671 1206.7 697.429 1216.85 688.186 1238.58 667.205 1239.45 668.944 1240.33 670.683 1218.94 698.134 1211.95 707.862 1204.97 717.589 1195.85 723.439 1197.54 727.308 1199.23 731.178 1212.61 730.826 1222.1 731.079 1231.58 731.332 1243.34 729.127 1254.43 728.825 1265.52 728.522 1290.3 728.317 1288.63 729.264 1286.96 730.211 1244.42 734.507 1244.42 734.507 1229.31 736.197 1212.08 736.761 1197.97 739.407 1183.86 742.052 1170.67 743.636 1159.73 750.38 1148.79 757.124 1137.03 771.761 1132.35 779.868 1127.68 787.975 1126.95 790.269 1131.7 799.02 1136.45 807.771 1147.24 824.27 1160.84 832.376 1174.45 840.482 1194.53 842.999 1213.33 847.657 1232.13 852.315 1272 858.47 1273.62 860.323 1275.24 862.176 1220.26 852.754 1223.05 858.776 1225.83 864.797 1305.42 899.971 1290.34 896.453 1275.27 892.935 1163.61 846.583 1132.62 837.667 1101.62 828.751 1111.78 838.572 1104.39 842.958 1096.99 847.344 1091.37 856.042 1088.25 863.986 1085.13 871.929 1085.08 879.783 1085.64 890.618 1086.21 901.454 1086.8 914.604 1091.62 928.996 1096.44 943.388 1103.8 956.089 1114.56 976.97 1125.31 997.851 1156.19 1050.42 1156.15 1054.28 1156.11 1058.15 1126.18 1017.59 1114.33 1000.15 1102.49 982.721 1092.37 964.101 1085.09 949.681 1077.82 935.261 1076.16 921.926 1070.68 913.633 1065.21 905.341 1060.11 902.609 1052.23 899.926 1044.35 897.244 1032.08 895.661 1023.42 897.539 1014.75 899.417 1006.99 904.95 1000.23 911.194 993.476 917.437 987.711 923.309 982.87 935 978.028 946.69 973.361 969.639 971.183 981.337 969.006 993.036 971.303 1007.83 969.804 1005.19 968.305 1002.55 962.676 977.223 962.19 965.516 961.703 953.81 968.383 937.588 966.884 934.951 965.385 932.315 958.33 943.975 953.196 949.695 948.062 955.416 943.164 960.334 936.08 969.273 928.995 978.213 913.021 1002.58 910.688 1003.33 908.354 1004.09 915.642 985.952 922.078 973.796 928.515 961.639 940.564 942.687 949.307 930.393 958.049 918.098 967.062 908.998 974.533 900.027 982.003 891.055 991.186 883.331 994.129 876.563 997.073 869.796 996.919 863.354 992.193 859.42 987.466 855.485 973.953 854.212 965.769 852.955 957.585 851.698 956.529 851.135 943.088 851.878 929.646 852.621 901.034 855.447 885.12 857.415 869.206 859.383 858.278 860.542 847.602 863.686 836.925 866.83 819.643 878.066 821.06 876.278 822.477 874.49 845.377 858.902 856.103 852.958 866.829 847.014 883.134 843.071 885.416 840.614 887.697 838.157 869.791 838.214 869.791 838.214 863.839 837.3 856.278 836.941 849.703 835.129 843.127 833.317 836.732 830.329 830.337 827.342 823.941 824.354 809.351 817.701 811.332 817.203 813.312 816.705 829.631 822.019 842.219 824.353 854.807 826.688 886.86 831.209 886.86 831.209 898.392 832.981 901.379 835.846 911.413 834.98 921.446 834.115 936.676 831.641 947.06 826.015 957.443 820.39 968.345 808.612 973.714 801.229 979.082 793.847 980.625 787.361 979.273 781.722 977.921 776.084 972.372 770.599 965.602 767.399 958.833 764.199 947.682 763.692 938.656 762.522 929.63 761.352 919.57 759.684 911.446 760.38 903.323 761.077 897.08 762.185 889.913 766.699 882.747 771.214 870.054 786.914 868.446 787.469 866.838 788.024 876.576 776.684 880.263 770.031 883.95 763.377 891.517 751.303 890.57 747.547 889.624 743.792 881.642 746.176 874.585 747.499 867.528 748.822 856.58 753.157 848.227 755.484 839.873 757.811 822.361 762.742 824.462 761.461 826.563 760.179 850.568 752.635 860.831 747.793 871.094 742.952 884.263 736.551 886.041 732.412 887.819 728.273 877.895 725.947 871.5 722.959 865.104 719.971 855.843 717.284 847.669 714.486 839.495 711.687 819.299 706.888 822.455 706.169 825.612 705.451 855.59 708.544 866.609 710.175 877.628 711.805 880.253 713.073 888.568 715.954 896.884 718.835 916.502 727.464 916.502 727.464 925.813 731.301 934.23 735.864 944.435 738.974 954.64 742.084 967.324 746.933 977.73 746.125 988.135 745.316 1000.11 741.046 1006.87 734.123 1013.62 727.2 1018.62 717.076 1018.26 704.586 1017.89 692.096 1009.81 672.805 1004.67 659.18 999.526 645.555 995.27 636.077 987.404 622.836 979.537 609.594 958.354 583.879 957.468 579.732 956.582 575.585 973.683 588.882 982.086 597.953 990.49 607.023 1002.81 633.773 1007.89 634.153 1012.98 634.533 1010.84 613.049 1012.6 600.232 1014.36 587.415 1017.11 556.741 1018.44 557.25 1019.77 557.759 1020.59 603.284 1020.59 603.284L1025.78 652.336C1026.87 660.124 1029.62 660.764 1031.1 673.426 1032.58 686.088 1033.53 685.767 1040.51 693.564 1047.49 701.361 1061.11 713.173 1072.98 720.209Z" stroke="#042433" stroke-width="4.58333" stroke-linecap="butt" stroke-linejoin="miter" stroke-miterlimit="8" stroke-opacity="1" fill="none" fill-rule="evenodd"/><path d="M1038.9 772.607C1030 778.365 1012.88 797.109 1017.63 806.745 1022.38 816.381 1055.58 832.167 1067.43 830.424 1079.28 828.681 1088.7 796.286 1088.7 796.286 1089.3 786.582 1071.03 772.197 1071.03 772.197 1063.47 769.254 1047.8 766.849 1038.9 772.607Z" stroke="#042433" stroke-width="4.58333" stroke-linecap="butt" stroke-linejoin="miter" stroke-miterlimit="8" stroke-opacity="1" fill="none" fill-rule="evenodd"/><path d="M159.895 89.5285C166.165 91.9741 184.227 88.717 193.675 89.5285 203.166 90.9371 205.53 98.1604 210.566 96.6579 213.646 96.5642 216.379 88.6589 220.7 80.6165 223.979 74.313 229.068 71.181 234.212 61.01 240.123 51.207 256.169 21.7976 256.169 21.7976 261.349 13.7508 262.369 12.8468 266.303 12.8855 269.932 12.8971 276.83 19.5497 278.126 23.5799 280.115 29.4297 275.569 36.2287 269.681 43.1863 263.424 50.2376 260.287 60.3616 254.48 68.1398 250.195 77.5018 244.58 89.2813 240.968 94.8755 237.59 102.897 234.212 116.265 234.212 116.265 235.327 120.88 239.31 121.759 242.657 126.959 244.332 132.289 250.944 140.331 254.48 146.565 255.767 151.844 251.849 157.674 256.169 159.042 260.302 157.03 269.14 155.857 278.126 150.13 284.39 147.265 295.192 136.002 300.083 130.523 305.136 125.516 305.565 122.423 308.528 118.047 311.197 114.27 313.467 106.78 318.662 103.788 323.448 100.817 337.241 100.223 337.241 100.223 340.592 99.9605 336.523 105.842 337.241 110.917 337.871 116.268 340.873 128.528 338.93 130.523 336.96 132.603 325.418 123.394 325.418 123.394 322.698 122.323 322.88 120.334 320.351 123.394 318.58 126.846 314.23 133.912 310.217 141.218 303.721 150.767 291.506 162.789 284.882 169.736 278.186 175.123 273.009 172.898 267.992 175.084 262.825 176.719 258.661 176.055 256.169 180.431 253.612 184.622 251.406 196.874 256.169 198.255 264.48 200.636 276.801 198.866 288.26 198.255 300.439 199.788 313.438 202.466 322.04 205.384 330.751 206.887 332.823 205.467 337.241 207.166 342.027 209.246 350.753 217.861 350.753 217.861 351.979 221.524 348.28 226.317 343.997 228.555 337.62 231.047 330.509 226.31 320.351 224.99 311.659 222.863 295.245 221.306 286.571 221.426 275.609 220.588 269.186 217.982 262.925 216.078 256.66 215.105 253.507 213.833 249.413 216.078 245.472 218.158 239.279 228.555 239.279 228.555 236.461 232.624 235.311 234.175 235.901 239.249 236.5 243.037 239.863 246.67 242.657 253.508 245.416 259.476 250.632 269.857 254.48 274.897 259.298 278.884 264.688 280.471 267.992 280.245 272.507 278.813 275.318 274.704 279.815 273.115 284.6 270.442 296.705 264.203 296.705 264.203 301.839 261.443 302.684 254.836 306.839 253.508 310.498 252.32 318.662 257.074 318.662 257.074 321.477 258.856 323.729 264.203 323.729 264.203 324.935 266.503 329.829 270.858 330.485 274.897 331.893 279.002 334.9 284.863 335.552 289.156 335.597 293.336 334.715 300.064 332.174 301.633 329.259 303.673 323.802 301.265 320.351 298.068 316.691 295.395 310.217 285.592 310.217 285.592 307.038 282.261 307.092 277.111 303.461 278.462 300.181 278.328 294.469 284.699 288.26 289.156 284.138 291.773 277.793 295.497 273.059 298.068 268.683 301.168 266.332 302.861 261.236 303.416 256.89 303.425 251.052 302.209 246.035 298.068 240.967 293.316 230.834 274.898 230.834 274.897 226.611 269.253 220.7 264.203 220.7 264.203 218.167 260.851 218.08 259.067 213.944 258.856 210.537 258.459 206.041 261.457 198.742 264.203 194.267 266.887 183.399 273.405 176.785 273.115 170.034 274.496 166.278 273.678 159.895 273.115 153.96 271.5 146.568 270.604 141.316 269.55 136.784 269.439 135.569 263.89 129.493 265.985 125.387 266.788 115.407 276.574 109.225 282.027 104.034 286.385 100.044 287.035 95.7128 290.939 92.4282 294.735 87.3879 295.868 85.5787 303.416 83.4493 309.275 84.9264 325.953 85.5787 331.934 85.844 339.222 88.9066 341.854 90.6457 347.975 91.9092 352.359 96.1647 356.756 95.7128 360.452 96.1921 365.406 92.8221 370.617 85.5787 372.929 80.8535 375.401 69.3348 373.941 61.9326 372.929 54.7597 373.596 48.9505 372.168 45.0426 369.364 41.3198 365.803 39.9741 355.397 43.3536 353.323 46.1338 350.607 57.8038 354.041 61.9326 351.54 67.3317 349.835 74.5376 349.66 75.4447 344.411 76.8547 338.832 69.5467 326.155 68.6887 317.675 67.0043 310.346 67.1347 302.111 68.6887 294.504 71.8995 286.751 78.6844 278.26 83.8897 273.115 88.7503 268.272 95.2738 266.618 99.0908 262.421 103.646 259.48 112.704 260.967 112.603 255.291 111.085 251.103 101.979 241.895 99.0908 235.685 95.55 230.232 98.9897 223.721 94.0238 223.208 89.5112 220.087 74.0773 227.811 66.9997 233.902 57.6497 240.553 43.8687 247.503 34.9085 249.944 27.2407 253.422 21.8723 256.551 16.3295 257.074 10.7704 258.659 3.99095 260.037 1.12805 258.856-1.32767 257.147 0.428478 250.271 2.81706 246.379 5.79294 242.83 11.5978 237.844 16.3295 235.685 22.2267 234.294 28.1359 233.349 34.9085 230.337 43.1839 228.142 53.2551 220.678 58.5546 217.861 64.8443 214.573 66.2199 213.547 70.3777 210.731 75.7143 207.14 81.6495 204.663 83.8897 200.037 86.462 195.541 84.0987 189.728 83.8897 183.995 84.0356 176.974 86.653 165.085 85.5787 160.824 83.8486 155.183 78.4032 151.431 72.0667 150.13 65.285 148.11 60.9316 148.884 53.4876 146.565 45.6981 143.536 35.5818 141.623 26.4635 135.871 17.5579 133.304 10.2958 130.534 6.19507 125.176 1.38651 121.225-0.272898 115.514 1.12805 112.7 1.26811 110.776 6.07089 106.968 14.6405 107.352 22.2408 108.244 46.7316 118.047 46.7316 118.047 58.1825 120.494 71.3844 126.069 77.1337 128.741 85.0156 131.118 94.0238 132.306 94.0238 132.306 97.8616 132.022 97.3029 130.269 102.469 126.959 107.493 123.299 117.911 114.114 122.737 110.917 128.427 106.17 132.484 102.693 131.182 96.6579 130.98 91.3405 124.314 83.6415 122.737 73.4868 119.525 63.0205 118.106 47.5372 114.292 39.6216 112.039 30.115 109.225 16.4506 109.225 16.4506 108.748 10.6998 108.15 8.2607 110.914 5.75618 114.075 2.69176 122.358-1.40787 126.115 0.408806 128.801 1.32907 130.629 10.115 132.871 16.4506 135.69 22.7663 138.933 30.3203 141.316 37.839 144.08 49.168 146.816 59.7113 148.072 69.9221 150.08 79.1034 150.176 86.0611 159.895 89.5285Z" stroke="#042433" stroke-width="4.58333" stroke-linecap="butt" stroke-linejoin="miter" stroke-miterlimit="8" stroke-opacity="1" fill="none" fill-rule="evenodd" transform="matrix(-1 0 0 1 3403.5 1413.5)"/><path d="M3023.4 1394.9C3016 1398.01 3004.17 1404.26 3000.09 1407.35 2996.01 1412.36 2997.76 1416.59 3000.09 1419.81 3002.75 1422.12 3011.16 1425.62 3018.02 1423.37 3026.31 1421.83 3037.54 1418.22 3046.71 1416.25 3054.07 1413.31 3059.99 1411.28 3064.64 1409.13 3069.42 1405.87 3075.4 1396.68 3075.4 1396.68 3075.35 1392.28 3074.21 1389.35 3068.23 1387.78 3062.55 1386.59 3041.33 1389.56 3041.33 1389.56 3036.03 1390.14 3030.17 1392.17 3023.4 1394.9Z" stroke="#042433" stroke-width="4.58333" stroke-linecap="butt" stroke-linejoin="miter" stroke-miterlimit="8" stroke-opacity="1" fill="none" fill-rule="evenodd"/><path d="M3039.87 1398.52C3036.3 1398.82 3029.16 1403.81 3029.16 1403.81 3026.36 1406.29 3022.53 1410.94 3023.81 1412.61 3025.81 1415.26 3034.12 1412.93 3038.09 1412.61 3042.55 1411.73 3050.57 1407.33 3050.57 1407.33 3052.66 1405.57 3050.57 1402.04 3050.57 1402.04 3049.43 1400.51 3043.15 1398.32 3039.87 1398.52Z" stroke="#042433" stroke-width="4.58333" stroke-linecap="butt" stroke-linejoin="miter" stroke-miterlimit="8" stroke-opacity="1" fill="none" fill-rule="evenodd"/><path d="M3012.71 1423.35C3011.18 1428.61 3020.16 1452.27 3023.41 1462.27 3026.08 1473.18 3028.76 1488.81 3028.76 1488.81 3028.46 1494.12 3021.63 1494.12 3021.63 1494.12 3020.66 1496.64 3020.08 1499.37 3021.63 1501.19 3023.61 1503.48 3027.16 1506.22 3034.1 1506.5 3042.16 1508 3055.09 1505.52 3064.41 1501.19 3072.72 1498.83 3084.01 1492.35 3084.01 1492.35 3089.24 1489.09 3093.01 1485.98 3094.71 1481.73 3096.49 1477.61 3094.71 1467.58 3094.71 1467.58 3093.82 1465.22 3089.36 1467.58 3089.36 1467.58 3087.28 1468.76 3082.23 1474.66 3082.23 1474.66 3080 1477.37 3079.7 1481.01 3075.1 1483.5 3071.18 1485.45 3066.91 1487.73 3060.84 1488.81 3055.57 1489.47 3045.82 1490.46 3039.45 1490.58 3033.81 1490.58 3026.97 1488.81 3026.97 1488.81 3024.6 1487.04 3025.19 1479.96 3025.19 1479.96 3026.68 1478.49 3035.89 1479.96 3035.89 1479.96 3040.7 1479.99 3046.43 1481.41 3051.93 1479.96 3056.85 1479.58 3061.14 1477.05 3066.19 1476.43 3070.64 1474.66 3078.67 1469.35 3078.67 1469.35 3081.34 1466.7 3082.23 1460.5 3082.23 1460.5 3082.56 1457.53 3081.41 1449.84 3078.67 1449.89 3075.99 1450.18 3066.19 1462.27 3066.19 1462.27 3062.61 1465.07 3062.99 1468.37 3059.06 1469.35 3056.11 1470.44 3050.33 1470.93 3044.8 1471.12 3040.05 1471.41 3030.54 1471.12 3030.54 1471.12 3026.68 1470.82 3021.63 1469.35 3021.63 1469.35 3019.4 1467.34 3017.45 1460.31 3021.63 1458.74 3026.05 1459.38 3037.66 1460.99 3046.58 1460.5 3053.89 1458.09 3057.93 1453.79 3064.41 1451.66 3070.05 1447.83 3080.45 1437.51 3080.45 1437.51 3082.23 1433.97 3075.1 1430.43 3075.1 1430.43 3073.7 1429.01 3077.49 1429.72 3075.1 1432.2 3073.9 1434.92 3065.33 1440.85 3059.06 1442.81 3053.12 1444.88 3039.45 1444.58 3039.45 1444.58 3034.79 1446.73 3026.74 1445.59 3019.84 1446.35 3015.53 1445.28 3012.53 1439.13 3014.5 1437.51 3016.4 1435.48 3025.7 1437.33 3032.32 1437.51 3039.99 1437.39 3047.25 1434.27 3053.71 1432.2 3059.65 1430.14 3067.97 1425.12 3067.97 1425.12 3071.24 1423.65 3073.32 1423.35 3073.32 1423.35 3073.82 1420.82 3071.36 1414.18 3067.97 1414.51 3063.59 1415.09 3057.83 1422.79 3051.93 1425.12 3047.89 1426.87 3040.83 1428.66 3034.1 1428.66 3028.57 1429.46 3013.83 1418.04 3012.71 1423.35Z" stroke="#042433" stroke-width="4.58333" stroke-linecap="butt" stroke-linejoin="miter" stroke-miterlimit="8" stroke-opacity="1" fill="none" fill-rule="evenodd"/><path d="M3070.5 1404.5C3073.37 1419.08 3079.68 1434.35 3080.31 1443.31 3082.93 1452.37 3086.2 1458.83 3086.2 1458.83 3087.83 1463.36 3090.12 1470.48 3090.12 1470.48 3090.85 1472.79 3090.49 1472.5 3090.12 1472.42" stroke="#042433" stroke-width="4.58333" stroke-linecap="butt" stroke-linejoin="miter" stroke-miterlimit="8" stroke-opacity="1" fill="none" fill-rule="evenodd"/><path d="M3057.08 1500.99C3058.92 1509.05 3060.69 1517.28 3063.79 1526.25 3065.72 1535.07 3067.36 1545.77 3070.25 1554.4 3072.22 1560.86 3073.7 1564.76 3076.31 1566.54 3078.62 1569.08 3086.27 1569.48 3086.87 1567.45 3088.37 1566.17 3085.17 1556.5 3082.95 1551.13 3082.53 1546.08 3082.9 1542.3 3080.66 1536.41 3078.97 1529.69 3074.13 1518.77 3072.07 1512.44 3070.86 1506.01 3069.31 1502.99 3069.66 1499.16" stroke="#042433" stroke-width="4.58333" stroke-linecap="butt" stroke-linejoin="miter" stroke-miterlimit="8" stroke-opacity="1" fill="none" fill-rule="evenodd"/><path d="M3009.83 1424.16C3007.93 1430.77 3018.8 1457.69 3023.47 1469.07 3025.19 1478.36 3021.4 1484.31 3027.36 1486.64 3036.49 1491.09 3062.53 1485.85 3072.16 1482.74 3082.22 1479.16 3087.74 1465.16 3087.74 1465.16 3089.82 1460.19 3087.37 1457.42 3083.84 1457.35 3079.31 1458.87 3072.73 1466.55 3064.36 1469.07 3055.93 1472.32 3033.2 1476.88 3033.2 1476.88 3026.71 1477.53 3025.41 1472.98 3025.41 1472.97 3023.76 1471.84 3019.03 1471.43 3023.47 1469.07 3028.4 1466.49 3043.96 1466.46 3050.73 1463.21 3058.85 1460.93 3072.16 1455.4 3072.16 1455.4 3076.7 1452.47 3078 1445.64 3078 1445.64 3079.68 1442.13 3082.64 1436.96 3078 1437.82 3075.47 1439.26 3057.16 1448.88 3050.73 1449.54 3042.4 1453.58 3036.7 1452.68 3031.26 1453.45 3025.74 1454.1 3017.62 1453.45 3017.62 1453.45 3014.61 1453.03 3013.06 1449.41 3015.68 1447.59 3018.89 1446.13 3025.2 1445.18 3031.26 1443.68 3036.72 1443.41 3051.33 1438.92 3056.57 1435.87 3063.39 1433.27 3072.16 1428.06 3072.16 1428.06 3071.29 1425.26 3072.18 1422.78 3072.16 1420.25 3071.46 1416.53 3073.13 1407.3 3068.26 1408.53 3062.75 1406.86 3049.19 1418.48 3039.05 1424.16 3031.15 1429.45 3010.5 1417.43 3009.83 1424.16Z" stroke="#042433" stroke-width="4.58333" stroke-linecap="butt" stroke-linejoin="miter" stroke-miterlimit="8" stroke-opacity="1" fill="none" fill-rule="evenodd"/><path d="M3062.44 1513.5C3057.59 1519.08 3055.15 1523.86 3054.5 1529.01 3054.5 1534.17 3062.44 1544.51 3062.44 1544.51 3064.63 1547.89 3067.19 1550.64 3070.38 1550.33 3073.53 1549.4 3081.08 1542.85 3082.29 1538.7 3083.61 1535.47 3078.32 1530.94 3078.32 1530.94 3076 1530.94 3068.39 1538.7 3068.39 1538.7 3065.09 1539.99 3058.47 1538.7 3058.47 1538.7 3057.16 1538.03 3056.92 1537.22 3060.45 1534.82 3064.09 1532.56 3080.3 1525.13 3080.3 1525.13 3083.16 1522.09 3080.25 1517.59 3076.33 1519.31 3073.46 1521.88 3064.78 1522.71 3056.48 1529.01" stroke="#042433" stroke-width="4.58333" stroke-linecap="butt" stroke-linejoin="miter" stroke-miterlimit="8" stroke-opacity="1" fill="none" fill-rule="evenodd"/><path d="M3211.5 1620.88C3218.34 1628.83 3225.18 1636.78 3234.95 1639.96 3244.72 1643.14 3262.7 1643.54 3270.12 1639.96 3277.55 1636.39 3278.52 1627.44 3279.5 1618.5" stroke="#042433" stroke-width="4.58333" stroke-linecap="butt" stroke-linejoin="miter" stroke-miterlimit="8" stroke-opacity="1" fill="none" fill-rule="evenodd"/><path d="M3182.5 1581.5C3188 1572.89 3193.5 1564.27 3200.5 1562.7 3207.5 1561.14 3219 1568.97 3224.5 1572.1 3230 1575.23 3231.75 1578.37 3233.5 1581.5" stroke="#042433" stroke-width="4.58333" stroke-linecap="butt" stroke-linejoin="miter" stroke-miterlimit="8" stroke-opacity="1" fill="none" fill-rule="evenodd"/><path d="M3251.5 1572.21C3256.96 1566.79 3262.42 1561.37 3269.37 1559.82 3276.33 1558.27 3293.21 1562.91 3293.21 1562.91 3297.18 1566.53 3295.19 1574.01 3293.21 1581.5" stroke="#042433" stroke-width="4.58333" stroke-linecap="butt" stroke-linejoin="miter" stroke-miterlimit="8" stroke-opacity="1" fill="none" fill-rule="evenodd"/></g></svg>