<svg width="1086" height="546" xmlns="http://www.w3.org/2000/svg" xmlns:xlink="http://www.w3.org/1999/xlink" xml:space="preserve" overflow="hidden"><defs><clipPath id="clip0"><rect x="2475" y="155" width="1086" height="546"/></clipPath></defs><g clip-path="url(#clip0)" transform="translate(-2475 -155)"><path d="M2623.48 301.403C2642.42 322.178 2669.21 333.378 2690.66 362.58 2712.12 391.781 2741.75 447.001 2752.23 476.613" stroke="#042433" stroke-width="4.58333" stroke-linecap="butt" stroke-linejoin="miter" stroke-miterlimit="8" stroke-opacity="1" fill="none" fill-rule="evenodd"/><path d="M2558.42 206.504C2563.06 207.17 2568.32 206.909 2572.62 206.352 2576.92 205.796 2580.96 205.217 2584.22 203.168 2587.47 201.118 2589.95 197.599 2592.16 194.057 2594.38 190.515 2595.5 186.143 2597.49 181.915 2599.47 177.688 2603.57 168.26 2604.07 168.693 2604.57 169.125 2601.42 180.542 2600.5 184.511 2599.57 188.479 2597.47 191.506 2598.5 192.502 2599.54 193.498 2603.7 191.644 2606.71 190.488 2609.72 189.331 2613.13 187.106 2616.58 185.565 2620.03 184.025 2627.79 180.731 2627.39 181.246 2626.99 181.762 2614.17 188.656 2614.17 188.656 2609.64 191.157 2604.3 193.578 2600.21 196.249 2596.12 198.92 2592.18 201.137 2589.62 204.683 2587.06 208.228 2585.27 214.363 2584.86 217.52 2584.45 220.677 2584.51 221.494 2587.15 223.626 2589.78 225.759 2595.32 229.539 2600.66 230.314 2605.99 231.089 2612.63 229.263 2619.15 228.278 2625.66 227.292 2639 224.03 2639.75 224.402 2640.5 224.773 2621.99 228.977 2623.65 230.507 2625.31 232.037 2654.91 232.723 2649.72 233.581 2644.52 234.439 2603.38 234.42 2592.47 235.656 2581.57 236.892 2586.04 238.655 2584.29 240.998 2582.53 243.34 2581.9 246.807 2581.96 249.711 2582.01 252.615 2583.59 255.722 2584.61 258.423 2585.62 261.124 2585.66 262.192 2588.03 265.919 2590.39 269.645 2592.86 274.873 2598.8 280.78 2604.73 286.687 2624.47 301.57 2623.63 301.36 2622.78 301.15 2599.66 284.318 2593.74 279.52 2587.81 274.723 2589.93 274.759 2588.08 272.574 2586.22 270.39 2584.74 267.559 2582.61 266.414 2580.48 265.269 2578.09 265.321 2575.31 265.704 2572.54 266.086 2568.43 266.988 2565.95 268.708 2563.47 270.427 2561.75 273.178 2560.44 276.022 2559.13 278.865 2558.08 281.462 2558.08 285.768 2558.08 290.074 2559.61 297.896 2560.45 301.858 2561.29 305.819 2563.94 310.17 2563.12 309.536 2562.31 308.903 2557.24 301.673 2555.56 298.056 2553.88 294.44 2553.87 288.47 2553.05 287.836 2552.24 287.203 2551.54 291.788 2550.67 294.255 2549.8 296.722 2548.9 298.907 2547.84 302.64 2546.78 306.374 2544.93 316.115 2544.3 316.656 2543.66 317.197 2543.59 310.547 2544.03 305.886 2544.47 301.226 2545.78 293.698 2546.93 288.694 2548.08 283.689 2549.72 279.654 2550.9 275.86 2552.08 272.066 2553.96 268.442 2554.01 265.931 2554.05 263.42 2553.16 261.415 2551.16 260.794 2549.16 260.173 2544.75 261.533 2542.01 262.205 2539.28 262.876 2538.87 262.837 2534.74 264.822 2530.61 266.808 2521.99 271.424 2517.24 274.117 2512.5 276.81 2509.21 278.598 2506.27 280.978 2503.32 283.357 2499.35 289.142 2499.56 288.395 2499.77 287.648 2504.94 279.764 2507.54 276.497 2510.14 273.231 2514.75 269.867 2515.15 268.797 2515.54 267.727 2509.92 270.079 2509.92 270.079 2507.93 270.567 2505.51 271.439 2503.2 271.727 2500.9 272.014 2498.5 271.908 2496.1 271.802 2493.7 271.697 2488.25 271.507 2488.81 271.092 2489.36 270.677 2495.19 270.221 2499.45 269.315 2503.71 268.408 2514.37 265.652 2514.37 265.652 2518.23 264.706 2519.54 265.218 2522.58 263.638 2525.63 262.058 2530.09 259.296 2532.62 256.174 2535.15 253.053 2537.05 247.929 2537.77 244.909 2538.5 241.889 2538.14 239.649 2536.98 238.052 2535.82 236.456 2533.36 235.455 2530.81 235.331 2528.27 235.207 2524.7 236.501 2521.71 237.31 2518.72 238.118 2515.34 238.905 2512.87 240.182 2510.41 241.46 2508.59 242.622 2506.93 244.975 2505.26 247.328 2503.32 253.917 2502.89 254.302 2502.45 254.686 2504.04 249.852 2504.33 247.28 2504.62 244.708 2505.42 239.926 2504.64 238.869 2503.85 237.811 2501.65 239.601 2499.61 240.937 2497.56 242.272 2494.68 245.062 2492.36 246.882 2490.04 248.702 2485.18 252.534 2485.67 251.858 2486.16 251.181 2492.73 245.681 2495.32 242.821 2497.92 239.962 2501.22 236.234 2501.24 234.701 2501.26 233.168 2497.84 233.73 2495.44 233.624 2493.04 233.518 2489.78 233.881 2486.84 234.066 2483.91 234.252 2476.93 235.375 2477.83 234.738 2478.73 234.1 2488.56 231.166 2492.24 230.243 2495.91 229.319 2496.9 229.376 2499.89 229.198 2502.88 229.02 2510.17 229.176 2510.17 229.176 2513.6 229.168 2516.84 229.506 2520.45 229.154 2524.07 228.802 2528.69 228.673 2531.85 227.063 2535.02 225.453 2538.23 222.549 2539.45 219.493 2540.67 216.436 2540.92 212.602 2539.18 208.723 2537.44 204.844 2532.38 199.833 2528.99 196.22 2525.6 192.607 2523.02 190.182 2518.83 187.045 2514.63 183.907 2504.62 178.584 2503.8 177.396 2502.98 176.207 2510.09 178.159 2513.91 179.915 2517.74 181.672 2525.09 188.476 2526.74 187.933 2528.39 187.389 2524.92 180.914 2523.8 176.656 2522.68 172.397 2519.55 162.396 2520.04 162.383 2520.52 162.369 2526.71 176.574 2526.71 176.574L2534.73 191.318C2536.09 193.624 2537.04 193.467 2539.16 197.254 2541.27 201.041 2541.53 200.816 2544.74 202.358 2547.95 203.9 2553.77 205.838 2558.42 206.504Z" stroke="#042433" stroke-width="4.58333" stroke-linecap="butt" stroke-linejoin="miter" stroke-miterlimit="8" stroke-opacity="1" fill="none" fill-rule="evenodd"/><path d="M2554.53 227.415C2552.49 230.385 2549.55 238.51 2552.3 240.92 2555.05 243.329 2567.54 243.965 2571.04 241.874 2574.53 239.782 2573.28 228.37 2573.28 228.37 2572.2 225.241 2564.58 223.1 2564.58 223.1 2561.82 223.161 2556.58 224.445 2554.53 227.415Z" stroke="#042433" stroke-width="4.58333" stroke-linecap="butt" stroke-linejoin="miter" stroke-miterlimit="8" stroke-opacity="1" fill="none" fill-rule="evenodd"/><path d="M3389.12 532.582C3385.63 533.927 3380.5 536.551 3378.66 537.773 3376.89 539.626 3377.64 541.586 3378.66 542.963 3379.71 543.766 3383.31 544.846 3386.71 544.446 3390.69 543.314 3395.15 542.201 3399.58 541.48 3402.85 540.204 3405.53 539.483 3407.63 538.514 3409.77 537.154 3412.46 533.324 3412.46 533.324 3412.5 531.557 3411.82 530.152 3409.24 529.616 3406.69 529.122 3397.17 530.358 3397.17 530.358 3394.82 530.522 3392 531.833 3389.12 532.582Z" stroke="#042433" stroke-width="4.58333" stroke-linecap="butt" stroke-linejoin="miter" stroke-miterlimit="8" stroke-opacity="1" fill="none" fill-rule="evenodd"/><path d="M3396.52 533.511C3394.99 533.648 3391.93 535.976 3391.93 535.976 3390.76 537.094 3389.09 539.299 3389.63 540.083 3390.4 541.118 3393.97 540.319 3395.75 540.083 3397.66 539.672 3401.1 537.618 3401.1 537.618 3402 536.797 3401.1 535.154 3401.1 535.154 3400.69 534.278 3397.98 533.399 3396.52 533.511Z" stroke="#042433" stroke-width="4.58333" stroke-linecap="butt" stroke-linejoin="miter" stroke-miterlimit="8" stroke-opacity="1" fill="none" fill-rule="evenodd"/><path d="M3384.6 544.349C3384 546.49 3387.47 557.664 3389.36 561.271 3390.55 566.014 3391.75 572.808 3391.75 572.808 3391.61 575.116 3388.57 575.116 3388.57 575.116 3388.2 576.352 3387.68 577.314 3388.57 578.193 3389.36 579.422 3391.2 580.113 3394.13 580.5 3397.56 580.914 3403.51 580.078 3407.64 578.193 3411.35 577.167 3416.38 574.347 3416.38 574.347 3418.99 572.901 3420.49 571.734 3421.15 569.732 3421.94 567.937 3421.15 563.578 3421.15 563.578 3420.75 562.553 3418.76 563.578 3418.76 563.578 3417.84 564.091 3415.58 566.655 3415.58 566.655 3414.78 567.924 3414.4 569.424 3412.41 570.501 3410.4 571.032 3408.83 572.41 3406.05 572.808 3403.47 573.262 3399.33 573.526 3396.51 573.577 3394 573.578 3390.95 572.808 3390.95 572.808 3389.89 572.04 3390.16 568.962 3390.16 568.963 3390.82 568.322 3394.93 568.963 3394.93 568.963 3397.07 568.975 3399.63 569.61 3402.08 568.963 3404.17 568.972 3406.42 568.132 3408.43 567.424 3410.42 566.655 3414 564.347 3414 564.347 3415.19 563.194 3415.58 560.502 3415.58 560.502 3415.82 559.288 3415.25 555.964 3414 555.886 3412.8 556.015 3408.43 561.271 3408.43 561.271 3406.86 562.508 3406.95 563.854 3405.25 564.347 3403.71 564.961 3401.64 565.075 3398.9 565.117 3396.78 565.245 3392.54 565.116 3392.54 565.117 3390.82 564.989 3388.57 564.347 3388.57 564.347 3387.51 563.482 3386.63 560.836 3388.57 559.733 3390.52 559.928 3396.28 560.923 3399.69 560.502 3402.91 559.689 3405.09 558.244 3407.64 556.656 3410.15 554.99 3414.79 550.503 3414.79 550.503 3415.58 548.964 3412.41 547.426 3412.41 547.426 3411.98 547.008 3413.52 547.182 3412.41 548.195 3411.79 549.355 3408.69 552.164 3405.25 552.81 3402.61 553.707 3396.51 553.579 3396.51 553.579 3393.45 554.322 3390.59 553.174 3387.77 554.348 3385.81 553.914 3384.56 551.27 3385.39 550.503 3386.08 549.112 3390.39 550.436 3393.34 550.503 3396.3 550.152 3399.79 549.099 3402.87 548.195 3405.52 547.298 3409.23 545.119 3409.23 545.118 3410.68 544.477 3411.61 544.349 3411.61 544.349 3411.66 543.502 3410.55 540.331 3409.23 540.504 3406.93 540.89 3405.05 544.137 3402.08 545.118 3400.1 545.933 3397.07 546.596 3394.13 546.657 3391.79 547.044 3384.85 542.157 3384.6 544.349Z" stroke="#042433" stroke-width="4.58333" stroke-linecap="butt" stroke-linejoin="miter" stroke-miterlimit="8" stroke-opacity="1" fill="none" fill-rule="evenodd"/><path d="M3410.5 536.5C3411.94 542.771 3414.11 549.206 3414.91 553.051 3416.09 556.913 3417.56 559.671 3417.56 559.671 3418.3 561.602 3419.33 564.637 3419.33 564.637 3419.66 565.624 3419.49 565.502 3419.33 565.464" stroke="#042433" stroke-width="4.58333" stroke-linecap="butt" stroke-linejoin="miter" stroke-miterlimit="8" stroke-opacity="1" fill="none" fill-rule="evenodd"/><path d="M3404.23 577.625C3405.15 581.095 3406.11 584.61 3407.29 588.429 3407.64 592.039 3409.05 597.013 3410.24 600.464 3411.01 602.956 3411.8 604.891 3412.98 605.659 3414.08 606.706 3417.44 606.929 3417.72 606.065 3418.36 605.472 3416.62 601.336 3415.93 599.09 3415.64 596.915 3415.74 595.498 3414.87 592.799 3414.34 589.414 3412.13 585.367 3410.97 582.543 3410.36 579.812 3409.75 578.495 3409.87 576.868" stroke="#042433" stroke-width="4.58333" stroke-linecap="butt" stroke-linejoin="miter" stroke-miterlimit="8" stroke-opacity="1" fill="none" fill-rule="evenodd"/><path d="M3383.65 545.238C3383.01 547.797 3388.17 559.962 3389.69 564.568 3390.4 568.495 3388.57 571.132 3391.41 572.131 3395.46 574.104 3407.3 571.444 3411.26 570.451 3415.72 568.91 3418.16 562.887 3418.16 562.887 3419.08 560.757 3417.94 559.686 3416.44 559.525 3414.58 559.984 3411.5 563.649 3407.81 564.568 3404.07 565.968 3394 567.929 3394 567.929 3391.13 568.21 3390.55 566.249 3390.55 566.248 3389.79 565.946 3387.78 565.4 3389.69 564.568 3391.97 563.301 3398.39 563.187 3401.77 562.046 3405.36 561.066 3411.26 558.685 3411.26 558.685 3413.27 557.424 3413.85 554.482 3413.85 554.482 3414.39 553.125 3416.07 550.366 3413.85 551.121 3412.34 551.6 3404.93 555.468 3401.77 556.163 3398.29 557.342 3395.41 557.313 3393.14 557.844 3390.69 558.124 3387.1 557.844 3387.1 557.844 3385.75 557.699 3384.93 556.195 3386.24 555.323 3387.57 554.682 3390.52 554.233 3393.14 553.642 3395.58 553.535 3402.07 551.613 3404.36 550.28 3407.38 549.16 3411.26 546.919 3411.26 546.919 3411.12 545.822 3411.41 544.71 3411.26 543.557 3410.94 541.82 3411.48 537.777 3409.53 538.514 3407.09 537.715 3401.27 542.303 3396.59 545.238 3392.85 547.323 3384.69 542.06 3383.65 545.238Z" stroke="#042433" stroke-width="4.58333" stroke-linecap="butt" stroke-linejoin="miter" stroke-miterlimit="8" stroke-opacity="1" fill="none" fill-rule="evenodd"/><path d="M3406.9 583.5C3405.1 585.782 3403.93 587.984 3403.5 590.205 3403.5 592.44 3406.9 596.91 3406.9 596.91 3407.64 598.282 3408.95 599.492 3410.3 599.424 3411.61 599.043 3414.86 595.908 3415.41 594.396 3415.98 592.999 3413.71 591.043 3413.71 591.043 3412.72 591.043 3409.45 594.396 3409.45 594.396 3408.04 594.954 3405.2 594.396 3405.2 594.396 3404.68 594.024 3404.52 593.738 3406.05 592.719 3407.61 591.742 3414.56 588.528 3414.56 588.529 3415.75 587.284 3414.53 585.249 3412.86 586.014 3411.3 586.552 3407.86 587.682 3404.35 590.205" stroke="#042433" stroke-width="4.58333" stroke-linecap="butt" stroke-linejoin="miter" stroke-miterlimit="8" stroke-opacity="1" fill="none" fill-rule="evenodd"/><path d="M3468.5 636.255C3475.72 636.67 3476.31 636.442 3479.6 636.35 3482.9 636.259 3484.78 637.051 3488.29 635.707 3491.81 634.363 3501.04 634.861 3501.5 631.5" stroke="#042433" stroke-width="4.58333" stroke-linecap="butt" stroke-linejoin="miter" stroke-miterlimit="8" stroke-opacity="1" fill="none" fill-rule="evenodd"/><path d="M3488.5 610.5C3491.12 607.476 3495.33 607.591 3498.67 607.041 3502 606.491 3505.88 606.102 3508.5 607.201" stroke="#042433" stroke-width="4.58333" stroke-linecap="butt" stroke-linejoin="miter" stroke-miterlimit="8" stroke-opacity="1" fill="none" fill-rule="evenodd"/><path d="M3457.03 612.216C3459.49 609.76 3465.9 609.079 3469.52 608.494 3473.13 607.909 3478.74 608.706 3478.74 608.706" stroke="#042433" stroke-width="4.58333" stroke-linecap="butt" stroke-linejoin="miter" stroke-miterlimit="8" stroke-opacity="1" fill="none" fill-rule="evenodd"/><path d="M3468.26 581.988C3469.88 582.291 3471.57 580.096 3473.99 579.718 3476.42 579.34 3480.24 579.869 3482.82 579.718 3485.39 579.567 3487.67 579.869 3489.44 578.81 3491.2 577.751 3492.45 575.783 3493.41 573.362 3494.36 570.94 3494.66 567.308 3495.17 564.281 3495.69 561.254 3497.52 557.243 3496.49 555.2 3495.47 553.157 3490.83 553.459 3488.99 552.021 3487.16 550.584 3485.46 548.465 3485.46 546.573 3485.46 544.681 3486.72 541.352 3488.99 540.67 3491.27 539.989 3496.2 541.503 3499.14 542.487 3502.08 543.47 3504.95 544.605 3506.64 546.573 3508.33 548.541 3509.36 551.113 3509.29 554.292 3509.22 557.47 3507.08 562.54 3506.2 565.643 3505.32 568.745 3504.8 570.183 3504 572.907 3503.19 575.632 3501.64 579.869 3501.35 581.988 3501.05 584.107 3501.57 584.637 3502.23 585.621 3502.89 586.604 3504.22 587.058 3505.32 587.891 3506.42 588.723 3508.85 590.615 3508.85 590.615 3509.88 591.448 3510.54 592.053 3511.5 592.885 3512.45 593.718 3513.48 595.08 3514.58 595.61 3515.69 596.139 3516.5 596.139 3518.11 596.064 3519.73 595.988 3522.38 595.912 3524.29 595.156 3526.2 594.399 3527.67 592.356 3529.58 591.523 3531.5 590.691 3533.7 590.691 3535.76 590.161 3537.82 589.631 3539.81 589.102 3541.94 588.345 3544.07 587.588 3546.64 585.923 3548.56 585.621 3550.47 585.318 3553.41 586.529 3553.41 586.529 3554.51 586.907 3554.88 587.134 3555.17 587.891 3555.47 588.648 3555.69 590.161 3555.17 591.069 3554.66 591.977 3553.7 592.28 3552.09 593.339 3550.47 594.399 3547.38 596.366 3545.47 597.426 3543.56 598.485 3542.23 599.015 3540.61 599.696 3539 600.377 3537.53 600.755 3535.76 601.512 3534 602.269 3532.01 603.631 3530.03 604.236 3528.04 604.842 3523.85 605.144 3523.85 605.144 3522.53 605.674 3522.75 606.507 3522.08 607.415 3521.42 608.323 3520.32 609.004 3519.88 610.593 3519.44 612.182 3519.44 615.133 3519.44 616.95 3519.44 618.766 3519.51 620.203 3519.88 621.49 3520.25 622.776 3520.69 623.609 3521.64 624.668 3522.6 625.728 3523.7 626.787 3525.61 627.846 3527.53 628.906 3530.73 629.828 3533.11 631.025 3535.5 632.222 3537.2 633.893 3539.92 635.028 3542.64 636.163 3547.34 637.141 3549.44 637.835 3551.54 638.53 3551.35 637.911 3552.53 639.198 3553.7 640.484 3556.42 643.889 3556.5 645.554 3556.57 647.219 3554.88 649.262 3552.97 649.187 3551.06 649.111 3548.41 646.614 3545.03 645.1 3541.64 643.587 3535.76 641.392 3532.67 640.106 3529.58 638.819 3528.85 638.289 3526.5 637.381 3524.14 636.473 3520.32 634.96 3518.55 634.657 3516.79 634.354 3516.79 634.808 3515.91 635.565 3515.03 636.322 3514.22 637.835 3513.26 639.198 3512.3 640.56 3510.98 642.376 3510.17 643.738 3509.36 645.1 3508.55 646.008 3508.41 647.37 3508.26 648.732 3508.77 649.035 3509.29 651.911 3509.8 654.786 3511.05 660.083 3511.5 664.624 3511.94 669.164 3511.86 674.083 3511.94 679.153 3512.01 684.223 3514.07 692.018 3511.94 695.045 3509.8 698.072 3502.45 697.542 3499.14 697.315 3495.83 697.088 3492.6 695.347 3492.08 693.683 3491.57 692.018 3494.44 688.461 3496.05 687.326 3497.67 686.191 3500.25 687.402 3501.79 686.872 3503.33 686.342 3504.73 685.661 3505.32 684.148 3505.91 682.634 3505.17 681.121 3505.32 677.791 3505.47 674.461 3506.42 668.105 3506.2 664.17 3505.98 660.235 3504.95 656.3 3504 654.181 3503.04 652.062 3502.45 651.305 3500.47 651.457 3498.48 651.608 3495.17 654.484 3492.08 655.089 3488.99 655.694 3484.66 655.392 3481.94 655.089 3479.21 654.786 3477.67 653.954 3475.76 653.273 3473.85 652.592 3472.16 651.381 3470.46 651.003 3468.77 650.624 3466.57 649.338 3465.61 651.003 3464.66 652.667 3464.8 655.24 3464.73 660.992 3464.66 666.743 3465.83 680.364 3465.17 685.51 3464.51 690.656 3463.48 690.504 3460.76 691.866 3458.04 693.229 3451.27 694.212 3448.85 693.683 3446.42 693.153 3445.9 690.353 3446.2 688.688 3446.49 687.023 3448.62 684.753 3450.61 683.694 3452.6 682.634 3456.71 683.088 3458.11 682.332 3459.51 681.575 3458.7 682.029 3458.99 679.153 3459.29 676.278 3459.8 669.013 3459.88 665.078 3459.95 661.143 3459.51 658.116 3459.43 655.543 3459.36 652.97 3459.73 651.608 3459.43 649.641 3459.14 647.673 3458.18 645.251 3457.67 643.738 3457.16 642.224 3456.79 642.149 3456.35 640.56 3455.9 638.971 3455.9 635.717 3455.02 634.203 3454.14 632.69 3452.74 631.706 3451.05 631.479 3449.36 631.252 3447.23 632.387 3444.88 632.841 3442.52 633.295 3436.93 634.203 3436.93 634.203L3425.46 636.019C3422.37 636.473 3421.05 636.852 3418.4 636.927 3415.76 637.003 3411.34 637.23 3409.58 636.473 3407.81 635.717 3407.01 633.673 3407.81 632.387 3408.62 631.1 3411.86 629.663 3414.43 628.755 3417.01 627.847 3423.26 626.938 3423.26 626.938 3426.27 626.333 3429.58 625.501 3432.52 625.122 3435.46 624.744 3438.33 624.895 3440.9 624.668 3443.48 624.441 3446.49 624.668 3447.96 623.76 3449.43 622.852 3449.95 620.809 3449.73 619.22 3449.51 617.631 3447.89 615.058 3446.64 614.225 3445.39 613.393 3444.21 614.917 3442.23 614.225 3440.25 613.534 3436.67 611.666 3434.76 610.077 3432.85 608.487 3432.53 606.648 3430.76 604.69 3428.99 602.733 3425.83 600.377 3424.14 598.334 3422.45 596.291 3421.86 592.961 3420.61 592.431 3419.36 591.902 3418.18 594.55 3416.64 595.156 3415.09 595.761 3412.08 596.518 3411.34 596.064 3410.61 595.609 3411.86 593.642 3412.23 592.431 3412.59 591.221 3413.4 590.161 3413.55 588.799 3413.7 587.437 3413.11 584.258 3413.11 584.258 3413.4 583.35 3413.77 583.275 3415.31 583.35 3416.86 583.426 3420.68 583.956 3422.37 584.713 3424.07 585.469 3424.29 586.302 3425.46 587.891 3426.64 589.48 3427.45 591.826 3429.43 594.247 3431.42 596.669 3434.87 600.301 3437.37 602.42 3439.87 604.539 3442.67 606.204 3444.43 606.961 3446.2 607.717 3446.79 608.02 3447.96 606.961 3449.14 605.901 3450.61 602.723 3451.49 600.604 3452.38 598.485 3452.6 595.988 3453.26 594.247 3453.92 592.507 3455.1 591.599 3455.46 590.161 3455.83 588.723 3456.27 588.042 3455.46 585.621 3454.65 583.199 3452.08 578.28 3450.61 575.632 3449.14 572.983 3448.11 571.318 3446.64 569.729 3445.17 568.14 3443.92 565.945 3441.79 566.097 3439.65 566.248 3435.98 571.016 3433.85 570.637 3431.71 570.259 3428.77 566.097 3428.99 563.827 3429.21 561.556 3432.74 558.605 3435.17 557.016 3437.6 555.427 3440.83 554.065 3443.55 554.292 3446.27 554.519 3449.29 556.638 3451.49 558.378 3453.7 560.119 3455.54 562.767 3456.79 564.735 3458.04 566.702 3457.74 567.989 3458.99 570.183 3460.24 572.378 3462.67 576.086 3464.29 577.902 3465.91 579.718 3466.64 581.686 3468.26 581.988Z" stroke="#042433" stroke-width="4.58333" stroke-linecap="butt" stroke-linejoin="miter" stroke-miterlimit="8" stroke-opacity="1" fill="none" fill-rule="evenodd"/><path d="M3387.5 547.5C3375.54 550.701 3324.37 596.171 3292.64 610.432 3260.9 624.692 3227.12 641.954 3197.09 633.066 3167.05 624.178 3136.11 568.963 3112.43 557.103 3088.76 545.242 3074.67 555.209 3055.03 561.904 3035.39 568.599 3012.13 595.67 2994.59 597.271 2977.05 598.871 2955.79 570.978 2934.54 571.507 2927.72 568.456 2891.05 594.082 2890.5 594.27" stroke="#042433" stroke-width="4.58333" stroke-linecap="butt" stroke-linejoin="miter" stroke-miterlimit="8" stroke-opacity="1" fill="none" fill-rule="evenodd"/></g></svg>