<svg width="2924" height="1650" xmlns="http://www.w3.org/2000/svg" xmlns:xlink="http://www.w3.org/1999/xlink" xml:space="preserve" overflow="hidden"><defs><clipPath id="clip0"><rect x="664" y="284" width="2924" height="1650"/></clipPath></defs><g clip-path="url(#clip0)" transform="translate(-664 -284)"><path d="M1099.5 832.5C1174.25 906.508 1329.09 941.812 1406.26 1042.15 1483.42 1142.48 1545.12 1340.81 1562.5 1434.5" stroke="#042433" stroke-width="4.58333" stroke-linecap="butt" stroke-linejoin="miter" stroke-miterlimit="8" stroke-opacity="1" fill="none" fill-rule="evenodd"/><path d="M960.789 466.333C975.594 472.298 993.169 475.698 1007.82 477.345 1022.46 478.993 1036.26 480.35 1048.68 476.221 1061.09 472.091 1072.13 462.475 1082.3 452.569 1092.47 442.662 1099.73 429.135 1109.71 416.78 1119.69 404.426 1140.85 376.607 1142.16 378.443 1143.46 380.278 1123.83 415.437 1117.55 427.792 1111.27 440.146 1101.87 448.439 1104.49 452.569 1107.1 456.698 1122.34 453.945 1133.22 452.569 1144.11 451.192 1157.17 446.604 1169.8 444.31 1182.43 442.016 1210.73 437.427 1208.99 438.804 1207.25 440.18 1159.35 452.569 1159.35 452.569 1142.37 457.157 1122.77 460.828 1107.1 466.333 1091.42 471.839 1076.62 475.969 1065.3 485.604 1053.97 495.24 1043.09 514.052 1039.17 524.146 1035.25 534.24 1034.81 536.993 1041.78 546.17 1048.75 555.346 1063.99 572.323 1080.97 579.205 1097.95 586.088 1121.36 585.438 1143.68 587.464 1165.99 589.49 1212.67 589.525 1214.85 591.36 1217.02 593.196 1152.49 592.078 1156.74 598.476 1160.98 604.875 1258.17 631.129 1240.31 629.753 1222.46 628.376 1086.63 594.971 1049.62 590.217 1012.61 585.463 1025.95 594.912 1018.27 601.229 1010.58 607.546 1005.69 618.482 1003.51 628.118 1001.33 637.753 1004.05 649.299 1005.2 659.041 1006.36 668.784 1005.64 672.348 1010.43 686.571 1015.22 700.795 1019.14 720.066 1033.94 744.384 1048.75 768.701 1101.87 833.855 1099.26 832.479 1096.65 831.102 1033.94 756.772 1018.27 736.125 1002.59 715.478 1009.56 717.313 1005.2 708.595 1000.85 699.877 998.237 689.324 992.141 683.818 986.045 678.312 978.107 676.547 968.627 675.559 959.148 674.571 944.842 674.219 935.262 677.89 925.682 681.561 917.781 689.254 911.149 697.583 904.518 705.913 898.957 713.642 895.473 727.866 891.99 742.089 890.683 769.16 890.248 782.925 889.812 796.69 895.038 813.208 892.86 810.455 890.683 807.702 879.797 779.713 877.185 766.408 874.572 753.102 879.362 733.372 877.185 730.619 875.007 727.866 868.988 742.444 864.121 749.89 859.255 757.335 854.518 763.822 847.987 775.292 841.455 786.763 827.468 817.442 824.932 818.714 822.396 819.986 827.544 797.962 832.77 782.925 837.995 767.888 848.446 744.092 856.283 728.492 864.121 712.892 872.83 700.899 879.797 689.324 886.765 677.749 895.909 667.3 898.086 659.041 900.263 650.783 898.957 643.441 892.86 639.771 886.764 636.1 871.089 637.018 861.509 637.018 851.929 637.018 850.623 636.559 835.382 639.771 820.142 642.983 787.919 651.241 770.066 656.289 752.213 661.336 739.921 664.581 728.263 670.053 716.606 675.526 698.817 691.415 700.123 689.121 701.43 686.826 724.88 664.972 736.102 656.289 747.323 647.605 765.276 640.23 767.453 637.018 769.631 633.806 749.165 637.018 749.165 637.018 742.198 637.018 733.489 637.935 725.651 637.018 717.813 636.1 709.975 633.806 702.137 631.512 694.299 629.218 676.446 624.171 678.623 623.253 680.801 622.335 700.395 625.547 715.2 626.006 730.005 626.465 767.453 626.006 767.453 626.006 780.952 626.006 784.871 628.759 796.193 626.006 807.514 623.253 824.496 617.747 835.382 609.488 846.268 601.229 856.666 585.84 861.509 576.452 866.352 567.065 866.976 559.374 864.44 553.161 861.904 546.949 854.595 541.649 846.292 539.178 837.989 536.707 825.148 538.086 814.621 538.333 804.094 538.581 792.297 538.44 783.129 540.664 773.962 542.888 767.018 545.252 759.615 551.676 752.213 558.099 740.456 578.288 738.714 579.205 736.972 580.123 746.117 565.44 749.165 557.182 752.213 548.923 758.745 533.781 757.003 529.652 755.261 525.522 746.552 529.652 738.714 532.405 730.876 535.158 719.119 542.04 709.975 546.17 700.831 550.299 681.671 559.017 683.849 557.182 686.026 555.346 712.152 542.499 723.038 535.158 733.924 527.816 747.859 518.181 749.165 513.134 750.471 508.087 738.714 507.169 730.876 504.875 723.038 502.581 711.976 501.134 702.137 499.369 692.298 497.604 668.36 495.662 671.843 494.286 675.327 492.909 710.151 491.181 723.038 491.11 735.925 491.04 739.15 492.028 749.165 493.863 759.18 495.698 783.129 502.122 783.129 502.122 794.451 504.875 804.878 508.616 817.094 510.381 829.309 512.146 844.667 515.465 856.424 512.712 868.18 509.959 881.127 502.969 887.635 493.863 894.144 484.757 898.086 472.298 895.473 458.075 892.861 443.851 880.233 423.203 871.959 408.521 863.686 393.838 857.154 383.744 845.833 369.98 834.512 356.215 805.772 330.52 804.03 325.932 802.289 321.344 824.179 333.551 835.382 342.45 846.585 351.349 865.367 379.786 871.249 379.327 877.131 378.868 870.914 354.668 870.674 339.697 870.433 324.726 868.193 289.155 869.805 289.503 871.418 289.85 880.347 341.784 880.347 341.784L894.898 396.984C897.51 405.701 900.769 405.95 904.688 420.174 908.607 434.398 909.637 433.864 918.987 441.557 928.337 449.25 945.984 460.369 960.789 466.333Z" stroke="#E59EDD" stroke-width="4.58333" stroke-linecap="butt" stroke-linejoin="miter" stroke-miterlimit="8" stroke-opacity="1" fill="none" fill-rule="evenodd"/><path d="M931.539 531.831C922.395 540.078 906.139 564.82 913.251 575.129 920.363 585.439 961.004 597.81 974.212 593.686 987.42 589.562 992.5 550.388 992.5 550.388 991.484 539.048 968.115 525.646 968.115 525.646 958.971 523.584 940.683 523.584 931.539 531.831Z" stroke="#E59EDD" stroke-width="4.58333" stroke-linecap="butt" stroke-linejoin="miter" stroke-miterlimit="8" stroke-opacity="1" fill="none" fill-rule="evenodd"/><path d="M3130.71 1481.13C3121.94 1484.72 3107.4 1491.35 3102.62 1495.66 3097.91 1500.61 3099.16 1506.97 3102.62 1510.2 3104.92 1511.92 3116.1 1517.23 3124.23 1514.35 3134.96 1511.24 3147.66 1508.31 3158.81 1506.04 3167.32 1502.15 3174.87 1499.73 3180.42 1497.74 3186.18 1493.93 3193.38 1483.21 3193.38 1483.21 3193.88 1478.78 3191.72 1474.38 3184.74 1472.83 3177.89 1471.44 3152.32 1474.9 3152.32 1474.9 3145.63 1476.1 3138.4 1479.05 3130.71 1481.13Z" stroke="#042433" stroke-width="4.58333" stroke-linecap="butt" stroke-linejoin="miter" stroke-miterlimit="8" stroke-opacity="1" fill="none" fill-rule="evenodd"/><path d="M3149.38 1485.53C3145.04 1485.86 3136.38 1491.51 3136.38 1491.51 3132.91 1494.39 3128.22 1499.7 3129.88 1501.49 3132.09 1504.03 3142.34 1501.91 3147.21 1501.49 3152.63 1500.49 3162.38 1495.5 3162.38 1495.5 3164.9 1493.51 3162.38 1489.52 3162.38 1489.52 3161.06 1487.66 3152.77 1485.46 3149.38 1485.53Z" stroke="#042433" stroke-width="4.58333" stroke-linecap="butt" stroke-linejoin="miter" stroke-miterlimit="8" stroke-opacity="1" fill="none" fill-rule="evenodd"/><path d="M3117.76 1513.89C3116.69 1518.97 3125.43 1549.86 3130.64 1559.58 3133.87 1572.39 3137.09 1590.73 3137.09 1590.73 3136.73 1596.96 3128.5 1596.96 3128.5 1596.96 3127.38 1600.02 3126.28 1602.98 3128.5 1605.27 3130.45 1609 3135.49 1610.67 3143.53 1611.5 3153.33 1613.42 3169.29 1609.43 3180.04 1605.27 3190.06 1602.5 3203.66 1594.89 3203.66 1594.89 3211.33 1590.93 3215.24 1588.44 3216.55 1582.43 3218.69 1577.58 3216.55 1565.81 3216.55 1565.81 3215.47 1563.04 3210.1 1565.81 3210.1 1565.81 3207.6 1567.2 3201.51 1574.12 3201.51 1574.12 3199.15 1577.45 3198.65 1581.56 3192.92 1584.5 3187.79 1586.34 3183.25 1589.63 3175.74 1590.73 3168.76 1591.98 3157.76 1592.65 3149.97 1592.81 3143.17 1592.81 3134.94 1590.73 3134.94 1590.73 3132.08 1588.66 3132.79 1580.35 3132.79 1580.35 3134.58 1578.62 3145.68 1580.35 3145.68 1580.35 3151.34 1580.37 3158.24 1582.31 3165 1580.35 3170.23 1581.01 3176.07 1576.88 3182.19 1576.2 3187.55 1574.12 3197.22 1567.89 3197.22 1567.89 3200.44 1564.77 3201.51 1557.51 3201.51 1557.51 3201.79 1553.92 3200.6 1545.2 3197.22 1545.04 3194 1545.39 3182.19 1559.58 3182.19 1559.58 3177.83 1562.8 3178.13 1566.48 3173.59 1567.89 3170.56 1568.85 3162.31 1569.64 3156.41 1569.97 3150.69 1570.31 3139.23 1569.97 3139.23 1569.97 3134.58 1569.62 3128.5 1567.89 3128.5 1567.89 3126.19 1565.51 3123.37 1557.75 3128.5 1555.43 3133.65 1554.78 3148.49 1558.33 3158.56 1557.51 3167.33 1554.93 3172.59 1550.32 3180.04 1547.12 3186.84 1542.62 3199.37 1530.51 3199.37 1530.51 3201.51 1526.35 3192.92 1522.2 3192.92 1522.2 3191.34 1520.64 3195.85 1521.43 3192.92 1524.28 3190.01 1526.84 3182.69 1534.91 3173.59 1536.74 3166.44 1539.16 3149.97 1538.81 3149.97 1538.81 3144.01 1539.75 3134.92 1539.34 3126.35 1540.89 3120.89 1539.82 3117.87 1532.86 3119.91 1530.51 3122.28 1528.38 3133.46 1530.98 3141.38 1530.51 3150.58 1530.34 3159.63 1526.71 3167.15 1524.28 3174.31 1521.85 3184.33 1515.97 3184.33 1515.97 3188.27 1514.24 3190.78 1513.89 3190.78 1513.89 3191.08 1511.36 3187.54 1502.99 3184.33 1503.51 3178.17 1504.5 3172.53 1513.27 3165 1515.97 3159.23 1518.36 3152.32 1520.92 3143.53 1520.12 3136.3 1520.9 3119.7 1507.41 3117.76 1513.89Z" stroke="#042433" stroke-width="4.58333" stroke-linecap="butt" stroke-linejoin="miter" stroke-miterlimit="8" stroke-opacity="1" fill="none" fill-rule="evenodd"/><path d="M3187.5 1492.5C3190.24 1509.15 3197.31 1527.12 3199.27 1537.59 3202.41 1548.11 3206.34 1555.62 3206.34 1555.62 3208.3 1560.88 3211.05 1569.15 3211.05 1569.15 3211.84 1571.78 3211.46 1571.56 3211.05 1571.4" stroke="#042433" stroke-width="4.58333" stroke-linecap="butt" stroke-linejoin="miter" stroke-miterlimit="8" stroke-opacity="1" fill="none" fill-rule="evenodd"/><path d="M3171.02 1604.58C3172.59 1613.73 3174.94 1623.42 3179.3 1633.86 3181.2 1643.93 3183.87 1656.76 3187.3 1666.47 3189.74 1673.99 3191.75 1678.94 3194.72 1680.55 3197.47 1683.57 3206.68 1684.18 3207.58 1681.65 3209.01 1678.99 3205.04 1668.91 3202.72 1662.75 3202.06 1656.88 3202.37 1652.84 3199.87 1645.7 3197.96 1637.56 3192.16 1625.41 3189.3 1617.91 3187.49 1610.56 3185.59 1607.09 3186.3 1602.52" stroke="#042433" stroke-width="4.58333" stroke-linecap="butt" stroke-linejoin="miter" stroke-miterlimit="8" stroke-opacity="1" fill="none" fill-rule="evenodd"/><path d="M3113.91 1515.53C3112.56 1521.99 3124.5 1554.01 3130.47 1567.27 3133.47 1578.77 3127.59 1584.84 3135.21 1587.51 3145.31 1590.64 3178.47 1586.07 3189.64 1583.02 3201.87 1578.89 3208.57 1562.77 3208.57 1562.77 3210.97 1557.71 3207.95 1554.2 3203.84 1553.77 3198.38 1555.47 3190.19 1565.65 3180.17 1567.27 3169.92 1571.02 3142.31 1576.27 3142.31 1576.27 3134.42 1577.02 3132.84 1571.77 3132.84 1571.77 3130.8 1570.63 3125.06 1570.05 3130.47 1567.27 3136.4 1564.38 3154.32 1563.54 3163.61 1560.52 3173.47 1557.9 3189.64 1551.52 3189.64 1551.52 3195.16 1548.15 3196.74 1540.28 3196.74 1540.28 3198.15 1536.73 3202.7 1529.63 3196.74 1531.28 3193.21 1532.76 3171.68 1543.66 3163.61 1544.78 3153.55 1549.25 3146.51 1548.35 3139.94 1549.27 3133.23 1550.02 3123.37 1549.27 3123.37 1549.27 3120.08 1548.32 3117.46 1544.81 3121.01 1542.53 3125.75 1540.98 3132.86 1539.59 3139.94 1538.03 3147.02 1537.2 3162.7 1532.11 3170.71 1529.03 3178.99 1526.03 3189.64 1520.03 3189.64 1520.03 3188.55 1516.98 3190.71 1514.94 3189.64 1511.03 3188.67 1505.45 3190.91 1496.19 3184.91 1497.54 3178.2 1497.33 3161.99 1508.4 3149.41 1515.53 3138.91 1520.86 3116.55 1507.1 3113.91 1515.53Z" stroke="#042433" stroke-width="4.58333" stroke-linecap="butt" stroke-linejoin="miter" stroke-miterlimit="8" stroke-opacity="1" fill="none" fill-rule="evenodd"/><path d="M3177.86 1619.5C3173.04 1625.57 3169.05 1631.53 3168.5 1637.52 3168.5 1643.53 3177.86 1655.54 3177.86 1655.54 3180.22 1659.36 3183.4 1662.96 3187.21 1662.3 3190.21 1661.46 3199.79 1653.38 3201.25 1648.78 3202.81 1645.03 3196.57 1639.77 3196.57 1639.77 3193.84 1639.77 3184.88 1648.78 3184.87 1648.78 3180.98 1650.28 3173.18 1648.78 3173.18 1648.78 3171.78 1647.71 3171.27 1646.96 3175.52 1644.28 3179.81 1641.65 3198.91 1633.01 3198.91 1633.01 3202.42 1629.14 3198.88 1624.92 3194.23 1626.26 3190.79 1629.25 3180.48 1630.82 3170.84 1637.52" stroke="#B4E5A2" stroke-width="4.58333" stroke-linecap="butt" stroke-linejoin="miter" stroke-miterlimit="8" stroke-opacity="1" fill="none" fill-rule="evenodd"/><path d="M3343.5 1762.77C3363.42 1764.01 3365.02 1763.32 3374.12 1763.05 3383.22 1762.78 3388.38 1765.15 3398.08 1761.12 3407.77 1757.09 3433.22 1758.58 3434.5 1748.5" stroke="#8ED973" stroke-width="4.58333" stroke-linecap="butt" stroke-linejoin="miter" stroke-miterlimit="8" stroke-opacity="1" fill="none" fill-rule="evenodd"/><path d="M3398.5 1691.5C3405.7 1683.94 3417.3 1684.23 3426.46 1682.85 3435.63 1681.48 3446.3 1680.5 3453.5 1683.25" stroke="#8ED973" stroke-width="4.58333" stroke-linecap="butt" stroke-linejoin="miter" stroke-miterlimit="8" stroke-opacity="1" fill="none" fill-rule="evenodd"/><path d="M3314.11 1698.32C3320.78 1691.67 3338.15 1689.82 3347.96 1688.24 3357.76 1686.65 3372.95 1688.81 3372.95 1688.81" stroke="#8ED973" stroke-width="4.58333" stroke-linecap="butt" stroke-linejoin="miter" stroke-miterlimit="8" stroke-opacity="1" fill="none" fill-rule="evenodd"/><path d="M3342.65 1614.81C3347.05 1615.63 3351.64 1609.69 3358.24 1608.66 3364.83 1607.64 3375.23 1609.07 3382.22 1608.66 3389.22 1608.25 3395.41 1609.07 3400.21 1606.21 3405.01 1603.34 3408.41 1598.01 3411 1591.46 3413.6 1584.9 3414.4 1575.07 3415.8 1566.87 3417.2 1558.68 3422.2 1547.82 3419.4 1542.29 3416.6 1536.76 3404.01 1537.58 3399.01 1533.69 3394.02 1529.8 3389.42 1524.06 3389.42 1518.94 3389.42 1513.82 3392.82 1504.81 3399.01 1502.96 3405.21 1501.12 3418.6 1505.21 3426.59 1507.88 3434.59 1510.54 3442.38 1513.61 3446.98 1518.94 3451.58 1524.27 3454.38 1531.23 3454.18 1539.83 3453.98 1548.44 3448.18 1562.16 3445.78 1570.56 3443.38 1578.96 3441.98 1582.85 3439.79 1590.23 3437.59 1597.6 3433.39 1609.07 3432.59 1614.81 3431.79 1620.55 3433.19 1621.98 3434.99 1624.64 3436.79 1627.31 3440.39 1628.53 3443.38 1630.79 3446.38 1633.04 3452.98 1638.16 3452.98 1638.16 3455.78 1640.42 3457.57 1642.05 3460.17 1644.31 3462.77 1646.56 3465.57 1650.25 3468.57 1651.68 3471.57 1653.12 3473.76 1653.12 3478.16 1652.91 3482.56 1652.71 3489.75 1652.5 3494.95 1650.45 3500.15 1648.4 3504.14 1642.87 3509.34 1640.62 3514.54 1638.37 3520.53 1638.37 3526.13 1636.93 3531.73 1635.5 3537.12 1634.07 3542.92 1632.02 3548.72 1629.97 3555.71 1625.46 3560.91 1624.64 3566.1 1623.82 3574.1 1627.1 3574.1 1627.1 3577.1 1628.12 3578.1 1628.74 3578.9 1630.79 3579.7 1632.84 3580.3 1636.93 3578.9 1639.39 3577.5 1641.85 3574.9 1642.67 3570.5 1645.54 3566.1 1648.4 3557.71 1653.73 3552.51 1656.6 3547.32 1659.47 3543.72 1660.9 3539.32 1662.74 3534.92 1664.59 3530.93 1665.61 3526.13 1667.66 3521.33 1669.71 3515.94 1673.4 3510.54 1675.03 3505.14 1676.67 3493.75 1677.49 3493.75 1677.49 3490.15 1678.93 3490.75 1681.18 3488.95 1683.64 3487.16 1686.1 3484.16 1687.94 3482.96 1692.24 3481.76 1696.54 3481.76 1704.53 3481.76 1709.45 3481.76 1714.37 3481.96 1718.26 3482.96 1721.74 3483.96 1725.22 3485.16 1727.48 3487.76 1730.34 3490.35 1733.21 3493.35 1736.08 3498.55 1738.95 3503.74 1741.82 3512.46 1744.31 3518.94 1747.55 3525.41 1750.79 3530.03 1755.32 3537.42 1758.39 3544.82 1761.46 3557.59 1764.11 3563.31 1765.99 3569.02 1767.87 3568.5 1766.19 3571.7 1769.68 3574.9 1773.16 3582.29 1782.38 3582.49 1786.88 3582.69 1791.39 3578.1 1796.92 3572.9 1796.72 3567.7 1796.51 3560.51 1789.75 3551.31 1785.65 3542.12 1781.56 3526.13 1775.62 3517.74 1772.13 3509.34 1768.65 3507.34 1767.22 3500.95 1764.76 3494.55 1762.3 3484.16 1758.2 3479.36 1757.38 3474.56 1756.56 3474.56 1757.79 3472.17 1759.84 3469.77 1761.89 3467.57 1765.99 3464.97 1769.68 3462.37 1773.36 3458.77 1778.28 3456.58 1781.97 3454.38 1785.65 3452.18 1788.11 3451.78 1791.8 3451.38 1795.49 3452.78 1796.31 3454.18 1804.09 3455.58 1811.87 3458.97 1826.21 3460.17 1838.5 3461.37 1850.8 3461.17 1864.11 3461.37 1877.84 3461.57 1891.56 3467.17 1912.66 3461.37 1920.85 3455.58 1929.05 3435.59 1927.61 3426.59 1927 3417.6 1926.38 3408.81 1921.67 3407.41 1917.17 3406.01 1912.66 3413.8 1903.03 3418.2 1899.96 3422.6 1896.89 3429.59 1900.16 3433.79 1898.73 3437.99 1897.3 3441.78 1895.45 3443.38 1891.36 3444.98 1887.26 3442.98 1883.16 3443.38 1874.15 3443.78 1865.13 3446.38 1847.93 3445.78 1837.28 3445.18 1826.62 3442.38 1815.97 3439.79 1810.24 3437.19 1804.5 3435.59 1802.45 3430.19 1802.86 3424.8 1803.27 3415.8 1811.05 3407.41 1812.69 3399.01 1814.33 3387.22 1813.51 3379.82 1812.69 3372.43 1811.87 3368.23 1809.62 3363.04 1807.78 3357.84 1805.93 3353.24 1802.66 3348.65 1801.63 3344.05 1800.61 3338.05 1797.12 3335.45 1801.63 3332.86 1806.14 3333.25 1813.1 3333.06 1828.67 3332.86 1844.24 3336.05 1881.11 3334.25 1895.04 3332.46 1908.97 3329.66 1908.56 3322.26 1912.25 3314.87 1915.94 3296.48 1918.6 3289.88 1917.17 3283.29 1915.73 3281.89 1908.15 3282.69 1903.65 3283.49 1899.14 3289.28 1892.99 3294.68 1890.13 3300.08 1887.26 3311.27 1888.49 3315.07 1886.44 3318.86 1884.39 3316.67 1885.62 3317.47 1877.84 3318.26 1870.05 3319.66 1850.39 3319.86 1839.73 3320.06 1829.08 3318.86 1820.89 3318.66 1813.92 3318.46 1806.96 3319.46 1803.27 3318.66 1797.94 3317.86 1792.62 3315.27 1786.06 3313.87 1781.97 3312.47 1777.87 3311.47 1777.66 3310.27 1773.36 3309.07 1769.06 3309.07 1760.25 3306.67 1756.16 3304.27 1752.06 3300.48 1749.4 3295.88 1748.78 3291.28 1748.17 3285.49 1751.24 3279.09 1752.47 3272.69 1753.7 3257.5 1756.16 3257.5 1756.16L3226.32 1761.07C3217.93 1762.3 3214.33 1763.32 3207.14 1763.53 3199.94 1763.73 3187.95 1764.35 3183.15 1762.3 3178.36 1760.25 3176.16 1754.72 3178.36 1751.24 3180.55 1747.76 3189.35 1743.86 3196.34 1741.41 3203.34 1738.95 3220.33 1736.49 3220.33 1736.49 3228.52 1734.85 3237.52 1732.6 3245.51 1731.57 3253.51 1730.55 3261.3 1730.96 3268.3 1730.34 3275.29 1729.73 3283.49 1730.34 3287.48 1727.89 3291.48 1725.43 3292.88 1719.9 3292.28 1715.59 3291.68 1711.29 3287.28 1704.33 3283.89 1702.07 3280.49 1699.82 3277.28 1703.95 3271.89 1702.07 3266.51 1700.2 3256.79 1695.15 3251.6 1690.84 3246.4 1686.54 3245.53 1681.56 3240.71 1676.26 3235.9 1670.97 3227.32 1664.59 3222.73 1659.06 3218.13 1653.53 3216.53 1644.51 3213.13 1643.08 3209.73 1641.64 3206.54 1648.81 3202.34 1650.45 3198.14 1652.09 3189.95 1654.14 3187.95 1652.91 3185.95 1651.68 3189.35 1646.36 3190.35 1643.08 3191.35 1639.8 3193.55 1636.93 3193.95 1633.25 3194.34 1629.56 3192.75 1620.95 3192.75 1620.95 3193.55 1618.5 3194.54 1618.29 3198.74 1618.5 3202.94 1618.7 3213.33 1620.14 3217.93 1622.18 3222.53 1624.23 3223.13 1626.49 3226.32 1630.79 3229.52 1635.09 3231.72 1641.44 3237.12 1647.99 3242.51 1654.55 3251.91 1664.38 3258.7 1670.12 3265.5 1675.85 3273.09 1680.36 3277.89 1682.41 3282.69 1684.46 3284.29 1685.28 3287.48 1682.41 3290.68 1679.54 3294.68 1670.94 3297.08 1665.2 3299.48 1659.47 3300.08 1652.71 3301.88 1647.99 3303.67 1643.28 3306.87 1640.82 3307.87 1636.93 3308.87 1633.04 3310.07 1631.2 3307.87 1624.64 3305.67 1618.09 3298.68 1604.77 3294.68 1597.6 3290.68 1590.43 3287.88 1585.93 3283.89 1581.62 3279.89 1577.32 3276.49 1571.38 3270.7 1571.79 3264.9 1572.2 3254.91 1585.11 3249.11 1584.08 3243.31 1583.06 3235.32 1571.79 3235.92 1565.65 3236.52 1559.5 3246.11 1551.51 3252.71 1547.21 3259.3 1542.91 3268.1 1539.22 3275.49 1539.83 3282.89 1540.45 3291.08 1546.18 3297.08 1550.9 3303.07 1555.61 3308.07 1562.78 3311.47 1568.1 3314.87 1573.43 3314.07 1576.91 3317.47 1582.85 3320.86 1588.79 3327.46 1598.83 3331.86 1603.75 3336.25 1608.66 3338.25 1613.99 3342.65 1614.81Z" stroke="#B4E5A2" stroke-width="4.58333" stroke-linecap="butt" stroke-linejoin="miter" stroke-miterlimit="8" stroke-opacity="1" fill="none" fill-rule="evenodd"/><path d="M3123.5 1523.5C3091.16 1532.12 3033.61 1545.48 3000.58 1605.35 2967.55 1665.22 2969.55 1868.97 2925.34 1882.71 2881.13 1896.45 2794.91 1726.43 2735.34 1687.8 2675.76 1649.18 2618.44 1625 2567.9 1650.98 2517.36 1676.97 2492.88 1831.81 2432.08 1843.72 2371.28 1855.62 2264.12 1722.13 2203.1 1722.43 2142.07 1722.73 2128.22 1858.93 2065.91 1845.5 2003.61 1832.06 1921.46 1809.48 1909.5 1781.12" stroke="#042433" stroke-width="4.58333" stroke-linecap="butt" stroke-linejoin="miter" stroke-miterlimit="8" stroke-opacity="1" fill="none" fill-rule="evenodd"/></g></svg>