<svg width="1944" height="1096" xmlns="http://www.w3.org/2000/svg" xmlns:xlink="http://www.w3.org/1999/xlink" xml:space="preserve" overflow="hidden"><defs><clipPath id="clip0"><rect x="2135" y="334" width="1944" height="1096"/></clipPath></defs><g clip-path="url(#clip0)" transform="translate(-2135 -334)"><path d="M2428 699C2477.4 748.052 2579.74 771.451 2630.74 837.951 2681.74 904.451 2722.51 1035.9 2734 1098" stroke="#042433" stroke-width="10.3125" stroke-linecap="butt" stroke-linejoin="miter" stroke-miterlimit="8" stroke-opacity="1" fill="none" fill-rule="evenodd"/><path d="M2336.51 456.912C2346.31 460.856 2357.94 463.103 2367.64 464.192 2377.34 465.282 2386.47 466.179 2394.69 463.449 2402.91 460.719 2410.21 454.361 2416.95 447.812 2423.68 441.262 2428.49 432.318 2435.09 424.15 2441.7 415.982 2455.71 397.59 2456.57 398.804 2457.44 400.017 2444.44 423.262 2440.28 431.431 2436.13 439.599 2429.91 445.081 2431.63 447.812 2433.36 450.542 2443.45 448.722 2450.66 447.812 2457.87 446.901 2466.51 443.868 2474.87 442.351 2483.23 440.834 2501.97 437.801 2500.82 438.711 2499.66 439.621 2467.96 447.812 2467.96 447.812 2456.71 450.845 2443.74 453.272 2433.36 456.912 2422.99 460.552 2413.19 463.282 2405.69 469.653 2398.2 476.023 2390.99 488.46 2388.4 495.134 2385.8 501.808 2385.51 503.628 2390.13 509.695 2394.74 515.762 2404.83 526.986 2416.07 531.536 2427.31 536.086 2442.81 535.657 2457.58 536.996 2472.35 538.336 2503.25 538.359 2504.69 539.572 2506.14 540.786 2463.42 540.047 2466.23 544.277 2469.04 548.507 2533.37 565.865 2521.55 564.955 2509.73 564.045 2419.81 541.96 2395.31 538.817 2370.81 535.674 2379.65 541.921 2374.56 546.097 2369.47 550.273 2366.23 557.504 2364.79 563.874 2363.35 570.244 2365.15 577.878 2365.91 584.319 2366.67 590.76 2366.2 593.116 2369.37 602.52 2372.54 611.924 2375.14 624.665 2384.94 640.742 2394.74 656.82 2429.91 699.896 2428.18 698.986 2426.45 698.076 2384.94 648.933 2374.56 635.282 2364.18 621.631 2368.79 622.845 2365.91 617.081 2363.03 611.317 2361.3 604.34 2357.26 600.7 2353.23 597.06 2347.97 595.893 2341.7 595.24 2335.42 594.587 2325.95 594.354 2319.61 596.781 2313.27 599.207 2308.04 604.294 2303.65 609.801 2299.26 615.308 2295.58 620.418 2293.27 629.822 2290.96 639.226 2290.1 657.123 2289.81 666.224 2289.52 675.325 2292.98 686.245 2291.54 684.425 2290.1 682.605 2282.89 664.1 2281.16 655.303 2279.43 646.506 2282.6 633.462 2281.16 631.642 2279.72 629.822 2275.74 639.46 2272.51 644.383 2269.29 649.305 2266.16 653.594 2261.83 661.177 2257.51 668.761 2248.25 689.044 2246.57 689.885 2244.89 690.726 2248.3 676.165 2251.76 666.224 2255.22 656.282 2262.14 640.55 2267.33 630.236 2272.51 619.922 2278.28 611.993 2282.89 604.34 2287.5 596.688 2293.56 589.779 2295 584.319 2296.44 578.859 2295.58 574.005 2291.54 571.578 2287.5 569.152 2277.13 569.758 2270.79 569.758 2264.44 569.758 2263.58 569.455 2253.49 571.578 2243.4 573.702 2222.07 579.162 2210.25 582.499 2198.43 585.836 2190.29 587.982 2182.58 591.6 2174.86 595.217 2163.08 605.722 2163.95 604.206 2164.81 602.689 2180.34 588.24 2187.77 582.499 2195.19 576.758 2207.08 571.882 2208.52 569.758 2209.96 567.635 2196.41 569.758 2196.41 569.758 2191.8 569.758 2186.04 570.365 2180.85 569.758 2175.66 569.152 2170.47 567.635 2165.28 566.118 2160.09 564.601 2148.27 561.265 2149.72 560.658 2151.16 560.051 2164.13 562.175 2173.93 562.478 2183.73 562.781 2208.52 562.478 2208.52 562.478 2217.46 562.478 2220.05 564.298 2227.55 562.478 2235.04 560.658 2246.28 557.018 2253.49 551.557 2260.7 546.097 2267.58 535.923 2270.79 529.716 2273.99 523.51 2274.4 518.425 2272.73 514.317 2271.05 510.21 2266.21 506.706 2260.71 505.073 2255.21 503.439 2246.71 504.35 2239.75 504.514 2232.78 504.678 2224.97 504.585 2218.9 506.055 2212.83 507.525 2208.23 509.088 2203.33 513.335 2198.43 517.582 2190.65 530.93 2189.5 531.536 2188.34 532.143 2194.4 522.436 2196.41 516.975 2198.43 511.515 2202.76 501.504 2201.6 498.774 2200.45 496.044 2194.68 498.774 2189.5 500.594 2184.31 502.415 2176.52 506.965 2170.47 509.695 2164.42 512.425 2151.73 518.189 2153.17 516.975 2154.62 515.762 2171.91 507.268 2179.12 502.415 2186.32 497.561 2195.55 491.191 2196.41 487.854 2197.28 484.517 2189.5 483.91 2184.31 482.393 2179.12 480.877 2171.8 479.92 2165.28 478.753 2158.77 477.586 2142.92 476.302 2145.23 475.392 2147.53 474.482 2170.59 473.34 2179.12 473.293 2187.65 473.246 2189.78 473.9 2196.41 475.113 2203.04 476.326 2218.9 480.573 2218.9 480.573 2226.39 482.393 2233.3 484.867 2241.38 486.034 2249.47 487.201 2259.64 489.395 2267.42 487.575 2275.2 485.754 2283.77 481.133 2288.08 475.113 2292.39 469.093 2295 460.856 2293.27 451.452 2291.54 442.048 2283.18 428.397 2277.7 418.69 2272.23 408.982 2267.9 402.309 2260.41 393.208 2252.91 384.108 2233.89 367.12 2232.73 364.087 2231.58 361.053 2246.07 369.124 2253.49 375.007 2260.91 380.891 2273.34 399.691 2277.23 399.388 2281.13 399.085 2277.01 383.085 2276.85 373.187 2276.69 363.289 2275.21 339.772 2276.28 340.002 2277.34 340.232 2283.26 374.567 2283.26 374.567L2292.89 411.062C2294.62 416.826 2296.78 416.99 2299.37 426.394 2301.96 435.798 2302.65 435.445 2308.84 440.531 2315.03 445.617 2326.71 452.968 2336.51 456.912Z" stroke="#E59EDD" stroke-width="10.3125" stroke-linecap="butt" stroke-linejoin="miter" stroke-miterlimit="8" stroke-opacity="1" fill="none" fill-rule="evenodd"/><path d="M2316.36 500.713C2310.26 506.015 2299.43 521.92 2304.17 528.548 2308.91 535.175 2336 543.128 2344.81 540.477 2353.61 537.826 2357 512.642 2357 512.642 2356.32 505.352 2340.74 496.736 2340.74 496.736 2334.65 495.411 2322.46 495.411 2316.36 500.713Z" stroke="#E59EDD" stroke-width="10.3125" stroke-linecap="butt" stroke-linejoin="miter" stroke-miterlimit="8" stroke-opacity="1" fill="none" fill-rule="evenodd"/><path d="M3772.59 1128.75C3766.52 1131.23 3757.2 1135.54 3754.06 1138.44 3750.86 1142.16 3752.15 1145.65 3754.06 1148.13 3756.33 1150.1 3762.85 1152.69 3768.31 1150.9 3774.83 1149.8 3783.88 1146.89 3791.12 1145.36 3797.06 1143.18 3801.69 1141.29 3805.37 1139.83 3809.17 1137.29 3813.92 1130.14 3813.92 1130.14 3813.78 1126.55 3813.23 1124.79 3808.22 1123.22 3803.71 1122.29 3786.84 1124.6 3786.84 1124.6 3782.48 1125.26 3777.85 1126.93 3772.59 1128.75Z" stroke="#042433" stroke-width="10.3125" stroke-linecap="butt" stroke-linejoin="miter" stroke-miterlimit="8" stroke-opacity="1" fill="none" fill-rule="evenodd"/><path d="M3784.86 1131.02C3782.06 1131.25 3776.45 1135.24 3776.45 1135.24 3774.14 1137.35 3771.15 1141.04 3772.25 1142.29 3773.76 1144.32 3780.15 1142.76 3783.46 1142.29 3786.96 1141.58 3793.27 1138.06 3793.27 1138.06 3794.91 1136.65 3793.27 1133.84 3793.27 1133.84 3792.64 1132.12 3787.09 1130.97 3784.86 1131.02Z" stroke="#042433" stroke-width="10.3125" stroke-linecap="butt" stroke-linejoin="miter" stroke-miterlimit="8" stroke-opacity="1" fill="none" fill-rule="evenodd"/><path d="M3763.17 1150.83C3762.41 1154.19 3768.55 1174.21 3771.81 1180.87 3773.96 1189.29 3776.12 1201.35 3776.12 1201.35 3775.88 1205.44 3770.37 1205.44 3770.37 1205.44 3769.59 1207.41 3768.86 1209.39 3770.37 1210.9 3771.84 1213.01 3775.06 1214.41 3780.44 1215 3786.44 1215.41 3797.66 1213.78 3804.9 1210.9 3811.61 1209.08 3820.73 1204.08 3820.73 1204.08 3825.67 1201.49 3828.17 1199.42 3829.36 1195.89 3830.8 1192.7 3829.36 1184.96 3829.36 1184.96 3828.64 1183.14 3825.04 1184.96 3825.04 1184.96 3823.36 1185.87 3819.29 1190.43 3819.29 1190.43 3818.19 1192.83 3816.51 1195.42 3813.53 1197.25 3810.29 1198.65 3807.16 1200.72 3802.02 1201.35 3797.77 1201.83 3790.62 1202.49 3784.76 1202.71 3780.2 1202.71 3774.68 1201.35 3774.68 1201.35 3772.77 1199.98 3773.25 1194.52 3773.25 1194.52 3774.44 1193.38 3781.88 1194.52 3781.88 1194.52 3785.71 1194.54 3790.19 1196.06 3794.83 1194.52 3798.74 1194.33 3802.69 1193.06 3806.34 1191.79 3809.94 1190.43 3816.41 1186.33 3816.41 1186.33 3818.57 1184.28 3819.29 1179.5 3819.29 1179.5 3819.48 1177.16 3818.61 1171.23 3816.41 1171.31 3814.25 1171.54 3806.34 1180.87 3806.34 1180.87 3803.6 1183.22 3803.62 1185.4 3800.58 1186.33 3798.64 1186.88 3793.89 1187.6 3789.07 1187.69 3785.24 1187.92 3777.56 1187.69 3777.56 1187.69 3774.44 1187.47 3770.37 1186.33 3770.37 1186.33 3768.13 1184.82 3766.93 1179.7 3770.37 1178.14 3773.9 1178.38 3783.51 1179.93 3790.51 1179.5 3796.38 1177.82 3799.82 1174.55 3804.9 1172.68 3809.46 1169.72 3817.85 1161.76 3817.85 1161.75 3819.29 1159.02 3813.53 1156.29 3813.53 1156.29 3812.64 1155.43 3815.66 1156.02 3813.53 1157.66 3812.45 1159.73 3805.82 1164.4 3800.58 1165.85 3795.79 1167.44 3784.76 1167.22 3784.76 1167.22 3781.33 1168.93 3774.08 1167.34 3768.93 1168.58 3765.34 1167.84 3763 1162.98 3764.61 1161.75 3766.07 1159.95 3773.66 1161.59 3779 1161.75 3784.61 1161.3 3790.69 1159.26 3796.27 1157.66 3801.06 1156.07 3807.78 1152.2 3807.78 1152.2 3810.42 1151.06 3812.09 1150.83 3812.09 1150.83 3812.51 1148.83 3810.39 1143.74 3807.78 1144.01 3804.41 1144.41 3800.44 1150.48 3794.83 1152.2 3791.51 1153.55 3786.08 1155.2 3780.44 1154.93 3776.39 1155.67 3763.84 1146.85 3763.17 1150.83Z" stroke="#042433" stroke-width="10.3125" stroke-linecap="butt" stroke-linejoin="miter" stroke-miterlimit="8" stroke-opacity="1" fill="none" fill-rule="evenodd"/><path d="M3810 1136C3811.42 1146.98 3817.93 1159.29 3817.85 1166.25 3819.94 1173.31 3822.56 1178.35 3822.56 1178.35 3823.87 1181.88 3825.7 1187.42 3825.7 1187.42 3826.24 1189.2 3825.98 1189.02 3825.7 1188.93" stroke="#042433" stroke-width="10.3125" stroke-linecap="butt" stroke-linejoin="miter" stroke-miterlimit="8" stroke-opacity="1" fill="none" fill-rule="evenodd"/><path d="M3799.5 1210.55C3799.73 1216.37 3801.68 1222.99 3804.99 1229.93 3805.77 1236.45 3808.09 1245.2 3810.28 1251.52 3811.79 1256.25 3813.24 1259.83 3815.2 1260.84 3817.27 1262.64 3822.91 1263.43 3823.7 1261.57 3824.63 1259.74 3821.89 1253.11 3820.49 1249.05 3819.99 1245.16 3820.19 1242.57 3818.6 1237.77 3817.61 1231.78 3813.37 1224.28 3811.6 1219.37 3810.46 1214.49 3809.22 1212.2 3809.62 1209.19" stroke="#042433" stroke-width="10.3125" stroke-linecap="butt" stroke-linejoin="miter" stroke-miterlimit="8" stroke-opacity="1" fill="none" fill-rule="evenodd"/><path d="M3761.27 1151.09C3759.95 1155.87 3769.04 1177.22 3772.31 1185.77 3773.55 1192.75 3769.49 1197.57 3775.47 1199.34 3782.97 1203.09 3804.58 1198.05 3811.76 1196.32 3819.91 1193.56 3824.38 1182.75 3824.38 1182.75 3826.06 1178.91 3824.34 1176.3 3821.23 1176.72 3817.69 1177.74 3812.2 1184.03 3805.45 1185.77 3798.61 1188.28 3780.2 1191.8 3780.2 1191.8 3774.94 1192.3 3773.89 1188.78 3773.89 1188.78 3772.47 1188.39 3768.59 1188.07 3772.31 1185.77 3776.06 1184.07 3788.51 1183.49 3794.4 1181.25 3800.98 1179.49 3811.76 1175.21 3811.76 1175.21 3815.44 1172.95 3816.49 1167.67 3816.49 1167.67 3817.61 1165.14 3820.23 1161.02 3816.49 1161.64 3813.17 1162.29 3800.62 1168.81 3794.4 1170.69 3787.71 1173.71 3782.98 1173.04 3778.63 1173.71 3774.16 1174.21 3767.58 1173.71 3767.58 1173.71 3765.27 1173.23 3764.03 1170.51 3766 1169.18 3768.82 1168.1 3774.42 1166.88 3778.63 1166.17 3783.52 1165.44 3793.85 1162.21 3799.14 1160.14 3804.66 1158.13 3811.76 1154.1 3811.76 1154.1 3811.42 1151.96 3812.46 1149.41 3811.76 1148.07 3811.14 1144.62 3812.53 1138.03 3808.6 1139.03 3804.13 1138.96 3792.72 1147.7 3784.94 1151.09 3777.84 1154.59 3762.89 1145.5 3761.27 1151.09Z" stroke="#042433" stroke-width="10.3125" stroke-linecap="butt" stroke-linejoin="miter" stroke-miterlimit="8" stroke-opacity="1" fill="none" fill-rule="evenodd"/><path d="M3803.52 1220C3799.36 1224.32 3797.91 1227.85 3797 1231.73 3797 1235.65 3803.52 1243.47 3803.52 1243.47 3805.1 1245.93 3807.41 1248.15 3810.04 1247.87 3811.99 1247.37 3818.8 1242 3819.83 1239.07 3820.91 1236.62 3816.56 1233.2 3816.56 1233.2 3814.66 1233.2 3808.41 1239.07 3808.41 1239.07 3805.7 1240.05 3800.26 1239.07 3800.26 1239.07 3799.23 1238.48 3799.04 1238.03 3801.89 1236.13 3804.88 1234.42 3818.2 1228.8 3818.2 1228.8 3820.51 1226.55 3818.15 1222.99 3814.93 1224.4 3812.05 1225.52 3805.43 1226.99 3798.63 1231.73" stroke="#B4E5A2" stroke-width="10.3125" stroke-linecap="butt" stroke-linejoin="miter" stroke-miterlimit="8" stroke-opacity="1" fill="none" fill-rule="evenodd"/><path d="M3913 1315.51C3926.13 1316.34 3927.19 1315.88 3933.19 1315.7 3939.19 1315.52 3942.59 1317.1 3948.99 1314.41 3955.38 1311.73 3972.16 1312.72 3973 1306" stroke="#8ED973" stroke-width="10.3125" stroke-linecap="butt" stroke-linejoin="miter" stroke-miterlimit="8" stroke-opacity="1" fill="none" fill-rule="evenodd"/><path d="M3950 1268C3954.71 1262.71 3962.3 1262.91 3968.3 1261.95 3974.3 1260.99 3981.29 1260.3 3986 1262.23" stroke="#8ED973" stroke-width="10.3125" stroke-linecap="butt" stroke-linejoin="miter" stroke-miterlimit="8" stroke-opacity="1" fill="none" fill-rule="evenodd"/><path d="M3894.21 1272.6C3898.63 1268.19 3910.13 1266.97 3916.62 1265.92 3923.11 1264.87 3933.16 1266.3 3933.16 1266.3" stroke="#8ED973" stroke-width="10.3125" stroke-linecap="butt" stroke-linejoin="miter" stroke-miterlimit="8" stroke-opacity="1" fill="none" fill-rule="evenodd"/><path d="M3912.88 1217.26C3915.77 1217.8 3918.81 1213.87 3923.15 1213.19 3927.5 1212.52 3934.35 1213.46 3938.97 1213.19 3943.58 1212.92 3947.66 1213.46 3950.82 1211.57 3953.99 1209.67 3956.23 1206.15 3957.94 1201.82 3959.65 1197.48 3960.18 1190.98 3961.1 1185.56 3962.02 1180.15 3965.32 1172.97 3963.47 1169.31 3961.63 1165.65 3953.33 1166.19 3950.03 1163.62 3946.74 1161.05 3943.71 1157.26 3943.71 1153.87 3943.71 1150.48 3945.95 1144.52 3950.03 1143.31 3954.12 1142.09 3962.95 1144.8 3968.22 1146.56 3973.49 1148.32 3978.63 1150.35 3981.66 1153.87 3984.69 1157.39 3986.53 1162 3986.4 1167.68 3986.27 1173.37 3982.45 1182.45 3980.87 1188 3979.29 1193.55 3978.36 1196.13 3976.91 1201 3975.47 1205.88 3972.7 1213.46 3972.17 1217.26 3971.64 1221.05 3972.57 1222 3973.75 1223.76 3974.94 1225.52 3977.31 1226.33 3979.29 1227.82 3981.26 1229.31 3985.61 1232.7 3985.61 1232.7 3987.46 1234.19 3988.64 1235.27 3990.35 1236.76 3992.07 1238.25 3993.91 1240.69 3995.89 1241.64 3997.87 1242.58 3999.31 1242.58 4002.21 1242.45 4005.11 1242.31 4009.86 1242.18 4013.28 1240.82 4016.71 1239.47 4019.34 1235.81 4022.77 1234.32 4026.2 1232.83 4030.15 1232.83 4033.84 1231.88 4037.53 1230.94 4041.08 1229.99 4044.91 1228.63 4048.73 1227.28 4053.34 1224.3 4056.77 1223.76 4060.19 1223.22 4065.46 1225.38 4065.46 1225.38 4067.44 1226.06 4068.1 1226.47 4068.62 1227.82 4069.15 1229.18 4069.55 1231.88 4068.62 1233.51 4067.7 1235.13 4065.99 1235.68 4063.09 1237.57 4060.19 1239.47 4054.66 1242.99 4051.23 1244.89 4047.8 1246.78 4045.43 1247.73 4042.53 1248.95 4039.64 1250.17 4037 1250.85 4033.84 1252.2 4030.68 1253.55 4027.12 1255.99 4023.56 1257.08 4020 1258.16 4012.49 1258.7 4012.49 1258.7 4010.12 1259.65 4010.52 1261.14 4009.33 1262.76 4008.14 1264.39 4006.17 1265.61 4005.38 1268.45 4004.59 1271.3 4004.59 1276.58 4004.59 1279.83 4004.59 1283.08 4004.72 1285.65 4005.38 1287.96 4006.03 1290.26 4006.83 1291.75 4008.54 1293.65 4010.25 1295.54 4012.23 1297.44 4015.65 1299.33 4019.08 1301.23 4024.82 1302.88 4029.09 1305.02 4033.37 1307.16 4036.41 1310.16 4041.28 1312.19 4046.16 1314.22 4054.58 1315.97 4058.35 1317.21 4062.11 1318.46 4061.77 1317.35 4063.88 1319.65 4065.99 1321.95 4070.86 1328.05 4071 1331.03 4071.13 1334.01 4068.1 1337.66 4064.67 1337.53 4061.25 1337.39 4056.5 1332.92 4050.44 1330.21 4044.38 1327.51 4033.84 1323.58 4028.3 1321.28 4022.77 1318.97 4021.45 1318.02 4017.24 1316.4 4013.02 1314.77 4006.17 1312.07 4003 1311.52 3999.84 1310.98 3999.84 1311.79 3998.26 1313.15 3996.68 1314.5 3995.23 1317.21 3993.52 1319.65 3991.8 1322.09 3989.43 1325.34 3987.98 1327.78 3986.53 1330.21 3985.08 1331.84 3984.82 1334.28 3984.56 1336.72 3985.48 1337.26 3986.4 1342.4 3987.32 1347.55 3989.56 1357.03 3990.35 1365.16 3991.15 1373.28 3991.01 1382.09 3991.15 1391.16 3991.28 1400.24 3994.97 1414.19 3991.15 1419.61 3987.32 1425.02 3974.15 1424.08 3968.22 1423.67 3962.29 1423.26 3956.49 1420.15 3955.57 1417.17 3954.65 1414.19 3959.78 1407.82 3962.68 1405.79 3965.58 1403.76 3970.19 1405.93 3972.96 1404.98 3975.73 1404.03 3978.23 1402.81 3979.29 1400.1 3980.34 1397.39 3979.02 1394.68 3979.29 1388.73 3979.55 1382.77 3981.26 1371.39 3980.87 1364.35 3980.47 1357.3 3978.63 1350.26 3976.91 1346.47 3975.2 1342.68 3974.15 1341.32 3970.59 1341.59 3967.03 1341.86 3961.1 1347.01 3955.57 1348.09 3950.03 1349.18 3942.26 1348.63 3937.38 1348.09 3932.51 1347.55 3929.74 1346.06 3926.32 1344.84 3922.89 1343.62 3919.86 1341.46 3916.83 1340.78 3913.8 1340.1 3909.85 1337.8 3908.13 1340.78 3906.42 1343.76 3906.68 1348.36 3906.55 1358.66 3906.42 1368.95 3908.53 1393.33 3907.34 1402.54 3906.16 1411.75 3904.31 1411.48 3899.44 1413.92 3894.56 1416.36 3882.44 1418.12 3878.09 1417.17 3873.74 1416.22 3872.82 1411.21 3873.35 1408.23 3873.87 1405.25 3877.69 1401.19 3881.25 1399.29 3884.81 1397.39 3892.19 1398.21 3894.69 1396.85 3897.2 1395.5 3895.75 1396.31 3896.27 1391.16 3896.8 1386.02 3897.72 1373.01 3897.85 1365.97 3897.99 1358.93 3897.2 1353.51 3897.06 1348.91 3896.93 1344.3 3897.59 1341.86 3897.06 1338.34 3896.54 1334.82 3894.82 1330.49 3893.9 1327.78 3892.98 1325.07 3892.32 1324.93 3891.53 1322.09 3890.74 1319.24 3890.74 1313.42 3889.16 1310.71 3887.58 1308 3885.07 1306.24 3882.04 1305.83 3879.01 1305.43 3875.19 1307.46 3870.97 1308.27 3866.76 1309.09 3856.74 1310.71 3856.74 1310.71L3836.19 1313.96C3830.65 1314.77 3828.28 1315.45 3823.54 1315.59 3818.79 1315.72 3810.89 1316.13 3807.73 1314.77 3804.56 1313.42 3803.11 1309.76 3804.56 1307.46 3806.01 1305.16 3811.81 1302.58 3816.42 1300.96 3821.03 1299.33 3832.23 1297.71 3832.23 1297.71 3837.64 1296.62 3843.57 1295.14 3848.84 1294.46 3854.11 1293.78 3859.25 1294.05 3863.86 1293.65 3868.47 1293.24 3873.87 1293.65 3876.51 1292.02 3879.14 1290.39 3880.07 1286.74 3879.67 1283.89 3879.28 1281.05 3876.38 1276.44 3874.14 1274.95 3871.9 1273.46 3869.78 1276.19 3866.23 1274.95 3862.68 1273.72 3856.27 1270.37 3852.85 1267.53 3849.42 1264.68 3848.85 1261.39 3845.67 1257.89 3842.5 1254.39 3836.85 1250.17 3833.82 1246.51 3830.79 1242.85 3829.73 1236.9 3827.49 1235.95 3825.25 1235 3823.14 1239.74 3820.38 1240.82 3817.61 1241.91 3812.21 1243.26 3810.89 1242.45 3809.57 1241.64 3811.81 1238.11 3812.47 1235.95 3813.13 1233.78 3814.58 1231.88 3814.84 1229.45 3815.1 1227.01 3814.05 1221.32 3814.05 1221.32 3814.58 1219.69 3815.24 1219.56 3818 1219.69 3820.77 1219.83 3827.62 1220.78 3830.65 1222.13 3833.68 1223.49 3834.08 1224.98 3836.19 1227.82 3838.3 1230.66 3839.75 1234.86 3843.3 1239.2 3846.86 1243.53 3853.05 1250.03 3857.53 1253.83 3862.01 1257.62 3867.02 1260.6 3870.18 1261.95 3873.35 1263.31 3874.4 1263.85 3876.51 1261.95 3878.62 1260.06 3881.25 1254.37 3882.83 1250.57 3884.41 1246.78 3884.81 1242.31 3886 1239.2 3887.18 1236.08 3889.29 1234.46 3889.95 1231.88 3890.61 1229.31 3891.4 1228.09 3889.95 1223.76 3888.5 1219.42 3883.89 1210.62 3881.25 1205.88 3878.62 1201.14 3876.77 1198.16 3874.14 1195.31 3871.5 1192.47 3869.26 1188.54 3865.44 1188.81 3861.62 1189.08 3855.03 1197.62 3851.21 1196.94 3847.39 1196.26 3842.12 1188.81 3842.51 1184.75 3842.91 1180.69 3849.23 1175.4 3853.58 1172.56 3857.93 1169.72 3863.73 1167.28 3868.6 1167.68 3873.48 1168.09 3878.88 1171.88 3882.83 1175 3886.79 1178.11 3890.08 1182.85 3892.32 1186.38 3894.56 1189.9 3894.03 1192.2 3896.27 1196.13 3898.51 1200.06 3902.86 1206.69 3905.76 1209.94 3908.66 1213.19 3909.98 1216.71 3912.88 1217.26Z" stroke="#8ED973" stroke-width="10.3125" stroke-linecap="butt" stroke-linejoin="miter" stroke-miterlimit="8" stroke-opacity="1" fill="none" fill-rule="evenodd"/><path d="M3768 1156C3746.58 1161.72 3708.47 1170.59 3686.59 1210.34 3664.72 1250.08 3666.04 1385.35 3636.76 1394.48 3607.49 1403.6 3550.38 1290.72 3510.93 1265.08 3471.48 1239.44 3433.51 1223.38 3400.04 1240.63 3366.57 1257.89 3350.36 1360.68 3310.09 1368.59 3269.82 1376.49 3198.86 1287.87 3158.44 1288.07 3118.02 1288.26 3108.85 1378.69 3067.59 1369.77 3026.33 1360.85 2971.92 1345.86 2964 1327.03" stroke="#042433" stroke-width="10.3125" stroke-linecap="butt" stroke-linejoin="miter" stroke-miterlimit="8" stroke-opacity="1" fill="none" fill-rule="evenodd"/></g></svg>