<svg width="1939" height="1096" xmlns="http://www.w3.org/2000/svg" xmlns:xlink="http://www.w3.org/1999/xlink" xml:space="preserve" overflow="hidden"><defs><clipPath id="clip0"><rect x="2140" y="334" width="1939" height="1096"/></clipPath></defs><g clip-path="url(#clip0)" transform="translate(-2140 -334)"><path d="M2428.5 699.5C2477.9 748.552 2580.24 771.951 2631.24 838.451 2682.24 904.951 2723.01 1036.4 2734.5 1098.5" stroke="#7F7F7F" stroke-width="6.875" stroke-linecap="butt" stroke-linejoin="miter" stroke-miterlimit="8" stroke-opacity="1" fill="none" fill-rule="evenodd"/><path d="M2337.01 457.412C2346.81 461.356 2358.44 463.603 2368.14 464.693 2377.84 465.782 2386.97 466.679 2395.19 463.949 2403.41 461.219 2410.71 454.861 2417.45 448.312 2424.18 441.762 2428.99 432.818 2435.59 424.65 2442.2 416.482 2456.21 398.09 2457.07 399.304 2457.94 400.517 2444.94 423.763 2440.78 431.931 2436.63 440.099 2430.41 445.582 2432.13 448.312 2433.86 451.042 2443.95 449.222 2451.16 448.312 2458.37 447.402 2467.01 444.368 2475.37 442.851 2483.73 441.335 2502.47 438.301 2501.32 439.211 2500.16 440.121 2468.46 448.312 2468.46 448.312 2457.21 451.345 2444.24 453.772 2433.86 457.412 2423.49 461.052 2413.69 463.783 2406.19 470.153 2398.7 476.523 2391.49 488.961 2388.9 495.634 2386.3 502.308 2386.01 504.128 2390.62 510.195 2395.24 516.262 2405.33 527.486 2416.57 532.036 2427.81 536.587 2443.31 536.157 2458.08 537.497 2472.85 538.836 2503.75 538.859 2505.19 540.072 2506.64 541.286 2463.92 540.547 2466.73 544.777 2469.54 549.008 2533.87 566.365 2522.05 565.455 2510.23 564.545 2420.31 542.46 2395.81 539.317 2371.31 536.174 2380.15 542.421 2375.06 546.597 2369.97 550.773 2366.73 558.004 2365.29 564.374 2363.85 570.745 2365.65 578.378 2366.41 584.819 2367.17 591.26 2366.7 593.617 2369.87 603.02 2373.04 612.424 2375.64 625.165 2385.44 641.243 2395.24 657.32 2430.41 700.396 2428.68 699.486 2426.95 698.576 2385.44 649.433 2375.06 635.782 2364.68 622.132 2369.29 623.345 2366.41 617.581 2363.53 611.818 2361.8 604.841 2357.76 601.2 2353.73 597.56 2348.47 596.393 2342.2 595.74 2335.92 595.087 2326.45 594.854 2320.11 597.281 2313.77 599.708 2308.54 604.794 2304.15 610.301 2299.76 615.808 2296.08 620.918 2293.77 630.322 2291.46 639.726 2290.6 657.624 2290.31 666.724 2290.02 675.825 2293.48 686.745 2292.04 684.925 2290.6 683.105 2283.39 664.601 2281.66 655.804 2279.93 647.006 2283.1 633.962 2281.66 632.142 2280.22 630.322 2276.24 639.96 2273.01 644.883 2269.79 649.805 2266.66 654.094 2262.33 661.678 2258.01 669.261 2248.75 689.544 2247.07 690.385 2245.39 691.227 2248.8 676.666 2252.26 666.724 2255.72 656.783 2262.64 641.05 2267.83 630.736 2273.01 620.422 2278.78 612.493 2283.39 604.841 2288 597.188 2294.06 590.28 2295.5 584.819 2296.94 579.359 2296.08 574.505 2292.04 572.079 2288 569.652 2277.63 570.259 2271.29 570.259 2264.94 570.259 2264.08 569.955 2253.99 572.079 2243.9 574.202 2222.57 579.662 2210.75 582.999 2198.93 586.336 2190.79 588.482 2183.08 592.1 2175.36 595.718 2163.58 606.223 2164.45 604.706 2165.31 603.189 2180.84 588.74 2188.27 582.999 2195.69 577.258 2207.58 572.382 2209.02 570.259 2210.46 568.135 2196.91 570.259 2196.91 570.259 2192.3 570.259 2186.54 570.865 2181.35 570.259 2176.16 569.652 2170.97 568.135 2165.78 566.618 2160.59 565.102 2148.77 561.765 2150.22 561.158 2151.66 560.551 2164.63 562.675 2174.43 562.978 2184.23 563.282 2209.02 562.978 2209.02 562.978 2217.96 562.978 2220.55 564.798 2228.05 562.978 2235.54 561.158 2246.78 557.518 2253.99 552.058 2261.2 546.597 2268.08 536.423 2271.29 530.216 2274.49 524.01 2274.9 518.925 2273.23 514.818 2271.55 510.71 2266.71 507.207 2261.21 505.573 2255.71 503.939 2247.21 504.851 2240.25 505.014 2233.28 505.178 2225.47 505.085 2219.4 506.555 2213.33 508.025 2208.73 509.588 2203.83 513.835 2198.93 518.082 2191.15 531.43 2190 532.036 2188.84 532.643 2194.9 522.936 2196.91 517.476 2198.93 512.015 2203.26 502.005 2202.1 499.275 2200.95 496.544 2195.18 499.275 2190 501.095 2184.81 502.915 2177.02 507.465 2170.97 510.195 2164.92 512.925 2152.23 518.689 2153.67 517.476 2155.12 516.262 2172.41 507.768 2179.62 502.915 2186.82 498.061 2196.05 491.691 2196.91 488.354 2197.78 485.017 2190 484.41 2184.81 482.894 2179.62 481.377 2172.29 480.42 2165.78 479.253 2159.27 478.086 2143.42 476.802 2145.73 475.892 2148.03 474.982 2171.09 473.84 2179.62 473.793 2188.15 473.747 2190.28 474.4 2196.91 475.613 2203.54 476.827 2219.4 481.074 2219.4 481.074 2226.89 482.894 2233.8 485.367 2241.88 486.534 2249.97 487.701 2260.14 489.895 2267.92 488.075 2275.7 486.255 2284.27 481.634 2288.58 475.613 2292.89 469.593 2295.5 461.356 2293.77 451.952 2292.04 442.548 2283.68 428.897 2278.2 419.19 2272.73 409.483 2268.4 402.809 2260.91 393.709 2253.41 384.608 2234.39 367.62 2233.23 364.587 2232.08 361.553 2246.57 369.624 2253.99 375.507 2261.41 381.391 2273.84 400.192 2277.73 399.888 2281.63 399.585 2277.51 383.585 2277.35 373.687 2277.19 363.79 2275.71 340.272 2276.78 340.502 2277.84 340.732 2283.76 375.068 2283.76 375.068L2293.39 411.562C2295.12 417.326 2297.27 417.49 2299.87 426.894 2302.46 436.298 2303.15 435.945 2309.34 441.031 2315.53 446.117 2327.21 453.468 2337.01 457.412Z" stroke="#7F7F7F" stroke-width="6.875" stroke-linecap="butt" stroke-linejoin="miter" stroke-miterlimit="8" stroke-opacity="1" fill="none" fill-rule="evenodd"/><path d="M2316.86 501.213C2310.76 506.515 2299.93 522.42 2304.67 529.047 2309.41 535.675 2336.5 543.628 2345.31 540.977 2354.11 538.326 2357.5 513.142 2357.5 513.142 2356.82 505.852 2341.24 497.236 2341.24 497.236 2335.15 495.911 2322.96 495.911 2316.86 501.213Z" stroke="#7F7F7F" stroke-width="6.875" stroke-linecap="butt" stroke-linejoin="miter" stroke-miterlimit="8" stroke-opacity="1" fill="none" fill-rule="evenodd"/><path d="M3773.09 1129.25C3767.02 1131.73 3757.7 1136.04 3754.56 1138.94 3751.36 1142.66 3752.65 1146.15 3754.56 1148.63 3756.83 1150.6 3763.35 1153.2 3768.81 1151.4 3775.33 1150.3 3784.38 1147.39 3791.62 1145.86 3797.56 1143.68 3802.19 1141.79 3805.87 1140.33 3809.67 1137.79 3814.42 1130.64 3814.42 1130.64 3814.28 1127.05 3813.73 1125.29 3808.72 1123.72 3804.21 1122.79 3787.34 1125.1 3787.34 1125.1 3782.98 1125.76 3778.35 1127.43 3773.09 1129.25Z" stroke="#7F7F7F" stroke-width="6.875" stroke-linecap="butt" stroke-linejoin="miter" stroke-miterlimit="8" stroke-opacity="1" fill="none" fill-rule="evenodd"/><path d="M3785.36 1131.52C3782.56 1131.75 3776.95 1135.74 3776.95 1135.74 3774.64 1137.85 3771.65 1141.54 3772.75 1142.79 3774.26 1144.82 3780.65 1143.26 3783.96 1142.79 3787.46 1142.08 3793.77 1138.56 3793.77 1138.56 3795.41 1137.15 3793.77 1134.34 3793.77 1134.34 3793.14 1132.62 3787.59 1131.47 3785.36 1131.52Z" stroke="#7F7F7F" stroke-width="6.875" stroke-linecap="butt" stroke-linejoin="miter" stroke-miterlimit="8" stroke-opacity="1" fill="none" fill-rule="evenodd"/><path d="M3763.67 1151.33C3762.91 1154.69 3769.05 1174.71 3772.31 1181.37 3774.46 1189.79 3776.62 1201.85 3776.62 1201.85 3776.38 1205.94 3770.87 1205.94 3770.87 1205.94 3770.09 1207.91 3769.36 1209.89 3770.87 1211.4 3772.34 1213.51 3775.56 1214.91 3780.94 1215.5 3786.94 1215.91 3798.16 1214.28 3805.4 1211.4 3812.11 1209.58 3821.23 1204.58 3821.23 1204.58 3826.17 1201.99 3828.67 1199.92 3829.86 1196.39 3831.3 1193.2 3829.86 1185.46 3829.86 1185.46 3829.14 1183.64 3825.54 1185.46 3825.54 1185.46 3823.86 1186.37 3819.79 1190.93 3819.79 1190.93 3818.69 1193.33 3817.01 1195.92 3814.03 1197.75 3810.79 1199.15 3807.66 1201.22 3802.52 1201.85 3798.27 1202.33 3791.12 1202.99 3785.26 1203.21 3780.7 1203.21 3775.18 1201.85 3775.18 1201.85 3773.27 1200.48 3773.75 1195.02 3773.75 1195.02 3774.94 1193.88 3782.38 1195.02 3782.38 1195.02 3786.21 1195.04 3790.69 1196.56 3795.33 1195.02 3799.24 1194.83 3803.19 1193.56 3806.84 1192.29 3810.44 1190.92 3816.91 1186.83 3816.91 1186.83 3819.07 1184.78 3819.79 1180 3819.79 1180 3819.98 1177.66 3819.11 1171.73 3816.91 1171.81 3814.75 1172.04 3806.84 1181.37 3806.84 1181.37 3804.1 1183.72 3804.12 1185.9 3801.08 1186.83 3799.14 1187.38 3794.39 1188.1 3789.57 1188.19 3785.74 1188.42 3778.06 1188.19 3778.06 1188.19 3774.94 1187.97 3770.87 1186.83 3770.87 1186.83 3768.63 1185.32 3767.43 1180.2 3770.87 1178.64 3774.4 1178.88 3784.01 1180.43 3791.01 1180 3796.88 1178.32 3800.32 1175.05 3805.4 1173.18 3809.96 1170.22 3818.35 1162.26 3818.35 1162.25 3819.79 1159.52 3814.03 1156.79 3814.03 1156.79 3813.14 1155.93 3816.16 1156.52 3814.03 1158.16 3812.95 1160.23 3806.32 1164.9 3801.08 1166.35 3796.29 1167.94 3785.26 1167.72 3785.26 1167.72 3781.83 1169.43 3774.58 1167.84 3769.43 1169.08 3765.84 1168.34 3763.5 1163.48 3765.11 1162.25 3766.57 1160.45 3774.16 1162.09 3779.5 1162.25 3785.11 1161.8 3791.19 1159.76 3796.77 1158.16 3801.56 1156.57 3808.28 1152.7 3808.28 1152.7 3810.91 1151.56 3812.59 1151.33 3812.59 1151.33 3813.01 1149.33 3810.89 1144.24 3808.28 1144.51 3804.91 1144.91 3800.94 1150.98 3795.33 1152.7 3792.01 1154.05 3786.57 1155.7 3780.94 1155.43 3776.89 1156.17 3764.34 1147.35 3763.67 1151.33Z" stroke="#7F7F7F" stroke-width="6.875" stroke-linecap="butt" stroke-linejoin="miter" stroke-miterlimit="8" stroke-opacity="1" fill="none" fill-rule="evenodd"/><path d="M3810.5 1136.5C3811.92 1147.48 3818.43 1159.79 3818.35 1166.75 3820.44 1173.81 3823.06 1178.85 3823.06 1178.85 3824.37 1182.38 3826.2 1187.92 3826.2 1187.92 3826.74 1189.7 3826.48 1189.52 3826.2 1189.43" stroke="#7F7F7F" stroke-width="6.875" stroke-linecap="butt" stroke-linejoin="miter" stroke-miterlimit="8" stroke-opacity="1" fill="none" fill-rule="evenodd"/><path d="M3799.5 1210.55C3799.73 1216.37 3801.68 1222.99 3804.99 1229.93 3805.77 1236.45 3808.09 1245.2 3810.28 1251.52 3811.79 1256.25 3813.24 1259.83 3815.2 1260.84 3817.27 1262.64 3822.91 1263.43 3823.7 1261.57 3824.63 1259.74 3821.89 1253.11 3820.49 1249.05 3819.99 1245.16 3820.19 1242.57 3818.6 1237.77 3817.61 1231.78 3813.37 1224.28 3811.6 1219.37 3810.46 1214.49 3809.22 1212.2 3809.62 1209.19" stroke="#7F7F7F" stroke-width="6.875" stroke-linecap="butt" stroke-linejoin="miter" stroke-miterlimit="8" stroke-opacity="1" fill="none" fill-rule="evenodd"/><path d="M3761.77 1151.59C3760.45 1156.37 3769.54 1177.72 3772.81 1186.27 3774.05 1193.25 3769.99 1198.07 3775.97 1199.84 3783.48 1203.59 3805.08 1198.55 3812.26 1196.82 3820.41 1194.06 3824.88 1183.25 3824.88 1183.25 3826.56 1179.41 3824.84 1176.8 3821.73 1177.22 3818.19 1178.24 3812.7 1184.53 3805.95 1186.27 3799.11 1188.78 3780.7 1192.3 3780.7 1192.3 3775.44 1192.8 3774.39 1189.28 3774.39 1189.28 3772.97 1188.89 3769.09 1188.57 3772.81 1186.27 3776.56 1184.57 3789.01 1183.99 3794.9 1181.75 3801.48 1179.99 3812.26 1175.71 3812.26 1175.71 3815.94 1173.45 3816.99 1168.17 3816.99 1168.17 3818.11 1165.64 3820.73 1161.52 3816.99 1162.14 3813.68 1162.79 3801.12 1169.31 3794.9 1171.19 3788.21 1174.21 3783.48 1173.54 3779.13 1174.21 3774.66 1174.71 3768.08 1174.21 3768.08 1174.21 3765.77 1173.73 3764.53 1171.01 3766.5 1169.68 3769.32 1168.6 3774.92 1167.38 3779.13 1166.67 3784.02 1165.94 3794.35 1162.71 3799.64 1160.64 3805.16 1158.63 3812.26 1154.6 3812.26 1154.6 3811.92 1152.46 3812.96 1149.91 3812.26 1148.57 3811.65 1145.12 3813.03 1138.53 3809.1 1139.53 3804.63 1139.46 3793.22 1148.2 3785.44 1151.59 3778.34 1155.09 3763.39 1146 3761.77 1151.59Z" stroke="#7F7F7F" stroke-width="6.875" stroke-linecap="butt" stroke-linejoin="miter" stroke-miterlimit="8" stroke-opacity="1" fill="none" fill-rule="evenodd"/><path d="M3804.02 1220.5C3799.86 1224.82 3798.41 1228.35 3797.5 1232.23 3797.5 1236.15 3804.02 1243.97 3804.02 1243.97 3805.6 1246.43 3807.91 1248.65 3810.54 1248.37 3812.49 1247.87 3819.3 1242.5 3820.33 1239.57 3821.41 1237.12 3817.06 1233.7 3817.06 1233.7 3815.16 1233.7 3808.91 1239.57 3808.91 1239.57 3806.2 1240.55 3800.76 1239.57 3800.76 1239.57 3799.73 1238.98 3799.54 1238.53 3802.39 1236.63 3805.38 1234.92 3818.7 1229.3 3818.7 1229.3 3821.01 1227.05 3818.65 1223.49 3815.43 1224.9 3812.55 1226.02 3805.93 1227.49 3799.13 1232.23" stroke="#7F7F7F" stroke-width="6.875" stroke-linecap="butt" stroke-linejoin="miter" stroke-miterlimit="8" stroke-opacity="1" fill="none" fill-rule="evenodd"/><path d="M3913.5 1316.01C3926.63 1316.84 3927.69 1316.38 3933.69 1316.2 3939.69 1316.02 3943.09 1317.6 3949.49 1314.91 3955.88 1312.23 3972.66 1313.22 3973.5 1306.5" stroke="#7F7F7F" stroke-width="6.875" stroke-linecap="butt" stroke-linejoin="miter" stroke-miterlimit="8" stroke-opacity="1" fill="none" fill-rule="evenodd"/><path d="M3950.5 1268.5C3955.21 1263.21 3962.8 1263.41 3968.8 1262.45 3974.8 1261.49 3981.79 1260.8 3986.5 1262.73" stroke="#7F7F7F" stroke-width="6.875" stroke-linecap="butt" stroke-linejoin="miter" stroke-miterlimit="8" stroke-opacity="1" fill="none" fill-rule="evenodd"/><path d="M3894.21 1272.6C3898.63 1268.19 3910.13 1266.97 3916.62 1265.92 3923.11 1264.87 3933.16 1266.3 3933.16 1266.3" stroke="#7F7F7F" stroke-width="6.875" stroke-linecap="butt" stroke-linejoin="miter" stroke-miterlimit="8" stroke-opacity="1" fill="none" fill-rule="evenodd"/><path d="M3913.38 1217.76C3916.27 1218.3 3919.31 1214.37 3923.65 1213.69 3928 1213.02 3934.85 1213.96 3939.47 1213.69 3944.08 1213.42 3948.16 1213.96 3951.32 1212.07 3954.49 1210.17 3956.73 1206.65 3958.44 1202.32 3960.15 1197.98 3960.68 1191.48 3961.6 1186.06 3962.52 1180.65 3965.82 1173.47 3963.97 1169.81 3962.13 1166.15 3953.83 1166.69 3950.53 1164.12 3947.24 1161.55 3944.21 1157.76 3944.21 1154.37 3944.21 1150.98 3946.45 1145.02 3950.53 1143.81 3954.62 1142.59 3963.45 1145.3 3968.72 1147.06 3973.99 1148.82 3979.13 1150.85 3982.16 1154.37 3985.19 1157.89 3987.03 1162.5 3986.9 1168.18 3986.77 1173.87 3982.95 1182.95 3981.37 1188.5 3979.79 1194.05 3978.86 1196.63 3977.41 1201.5 3975.97 1206.38 3973.2 1213.96 3972.67 1217.76 3972.14 1221.55 3973.07 1222.5 3974.25 1224.26 3975.44 1226.02 3977.81 1226.83 3979.79 1228.32 3981.76 1229.81 3986.11 1233.2 3986.11 1233.2 3987.96 1234.69 3989.14 1235.77 3990.85 1237.26 3992.57 1238.75 3994.41 1241.19 3996.39 1242.14 3998.37 1243.08 3999.81 1243.08 4002.71 1242.95 4005.61 1242.81 4010.36 1242.68 4013.78 1241.32 4017.21 1239.97 4019.84 1236.31 4023.27 1234.82 4026.7 1233.33 4030.65 1233.33 4034.34 1232.38 4038.03 1231.44 4041.58 1230.49 4045.41 1229.13 4049.23 1227.78 4053.84 1224.8 4057.27 1224.26 4060.69 1223.72 4065.96 1225.88 4065.96 1225.88 4067.94 1226.56 4068.6 1226.97 4069.12 1228.32 4069.65 1229.68 4070.05 1232.38 4069.12 1234.01 4068.2 1235.63 4066.49 1236.18 4063.59 1238.07 4060.69 1239.97 4055.16 1243.49 4051.73 1245.39 4048.3 1247.28 4045.93 1248.23 4043.03 1249.45 4040.14 1250.67 4037.5 1251.35 4034.34 1252.7 4031.18 1254.05 4027.62 1256.49 4024.06 1257.58 4020.5 1258.66 4012.99 1259.2 4012.99 1259.2 4010.62 1260.15 4011.01 1261.64 4009.83 1263.26 4008.64 1264.89 4006.67 1266.11 4005.88 1268.95 4005.09 1271.8 4005.09 1277.08 4005.09 1280.33 4005.09 1283.58 4005.22 1286.15 4005.88 1288.46 4006.53 1290.76 4007.33 1292.25 4009.04 1294.15 4010.75 1296.04 4012.73 1297.94 4016.15 1299.83 4019.58 1301.73 4025.32 1303.38 4029.59 1305.52 4033.87 1307.66 4036.91 1310.66 4041.78 1312.69 4046.66 1314.72 4055.08 1316.47 4058.85 1317.71 4062.61 1318.96 4062.27 1317.85 4064.38 1320.15 4066.49 1322.45 4071.36 1328.55 4071.5 1331.53 4071.63 1334.51 4068.6 1338.16 4065.17 1338.03 4061.75 1337.89 4057 1333.42 4050.94 1330.71 4044.88 1328.01 4034.34 1324.08 4028.8 1321.78 4023.27 1319.47 4021.95 1318.52 4017.74 1316.9 4013.52 1315.27 4006.67 1312.57 4003.5 1312.02 4000.34 1311.48 4000.34 1312.29 3998.76 1313.65 3997.18 1315 3995.73 1317.71 3994.02 1320.15 3992.3 1322.59 3989.93 1325.84 3988.48 1328.28 3987.03 1330.71 3985.58 1332.34 3985.32 1334.78 3985.06 1337.22 3985.98 1337.76 3986.9 1342.9 3987.82 1348.05 3990.06 1357.53 3990.85 1365.66 3991.65 1373.78 3991.51 1382.59 3991.65 1391.66 3991.78 1400.74 3995.47 1414.69 3991.65 1420.11 3987.82 1425.52 3974.65 1424.58 3968.72 1424.17 3962.79 1423.76 3956.99 1420.65 3956.07 1417.67 3955.15 1414.69 3960.28 1408.32 3963.18 1406.29 3966.08 1404.26 3970.69 1406.43 3973.46 1405.48 3976.23 1404.53 3978.73 1403.31 3979.79 1400.6 3980.84 1397.89 3979.52 1395.18 3979.79 1389.22 3980.05 1383.27 3981.76 1371.89 3981.37 1364.85 3980.97 1357.8 3979.13 1350.76 3977.41 1346.97 3975.7 1343.17 3974.65 1341.82 3971.09 1342.09 3967.53 1342.36 3961.6 1347.51 3956.07 1348.59 3950.53 1349.68 3942.76 1349.13 3937.88 1348.59 3933.01 1348.05 3930.24 1346.56 3926.82 1345.34 3923.39 1344.12 3920.36 1341.96 3917.33 1341.28 3914.3 1340.6 3910.35 1338.3 3908.63 1341.28 3906.92 1344.26 3907.18 1348.86 3907.05 1359.16 3906.92 1369.45 3909.03 1393.83 3907.84 1403.04 3906.66 1412.25 3904.81 1411.98 3899.94 1414.42 3895.06 1416.85 3882.94 1418.62 3878.59 1417.67 3874.24 1416.72 3873.32 1411.71 3873.85 1408.73 3874.37 1405.75 3878.19 1401.69 3881.75 1399.79 3885.31 1397.89 3892.69 1398.71 3895.19 1397.35 3897.7 1396 3896.25 1396.81 3896.77 1391.66 3897.3 1386.52 3898.22 1373.51 3898.35 1366.47 3898.49 1359.43 3897.7 1354.01 3897.56 1349.41 3897.43 1344.8 3898.09 1342.36 3897.56 1338.84 3897.04 1335.32 3895.32 1330.99 3894.4 1328.28 3893.48 1325.57 3892.82 1325.43 3892.03 1322.59 3891.24 1319.74 3891.24 1313.92 3889.66 1311.21 3888.08 1308.5 3885.57 1306.74 3882.54 1306.33 3879.51 1305.93 3875.69 1307.96 3871.47 1308.77 3867.26 1309.59 3857.24 1311.21 3857.24 1311.21L3836.69 1314.46C3831.15 1315.27 3828.78 1315.95 3824.04 1316.09 3819.29 1316.22 3811.39 1316.63 3808.23 1315.27 3805.06 1313.92 3803.61 1310.26 3805.06 1307.96 3806.51 1305.66 3812.31 1303.08 3816.92 1301.46 3821.53 1299.83 3832.73 1298.21 3832.73 1298.21 3838.14 1297.12 3844.07 1295.64 3849.34 1294.96 3854.61 1294.28 3859.75 1294.55 3864.36 1294.15 3868.97 1293.74 3874.37 1294.15 3877.01 1292.52 3879.64 1290.89 3880.57 1287.24 3880.17 1284.39 3879.78 1281.55 3876.88 1276.94 3874.64 1275.45 3872.4 1273.96 3870.28 1276.69 3866.73 1275.45 3863.18 1274.22 3856.77 1270.87 3853.35 1268.03 3849.92 1265.18 3849.35 1261.89 3846.18 1258.39 3843 1254.89 3837.35 1250.67 3834.32 1247.01 3831.29 1243.35 3830.23 1237.4 3827.99 1236.45 3825.75 1235.5 3823.64 1240.24 3820.88 1241.32 3818.11 1242.41 3812.71 1243.76 3811.39 1242.95 3810.07 1242.14 3812.31 1238.61 3812.97 1236.45 3813.63 1234.28 3815.08 1232.38 3815.34 1229.95 3815.61 1227.51 3814.55 1221.82 3814.55 1221.82 3815.08 1220.19 3815.74 1220.06 3818.5 1220.19 3821.27 1220.33 3828.12 1221.28 3831.15 1222.63 3834.18 1223.99 3834.58 1225.48 3836.69 1228.32 3838.8 1231.17 3840.25 1235.36 3843.8 1239.7 3847.36 1244.03 3853.55 1250.53 3858.03 1254.33 3862.51 1258.12 3867.52 1261.1 3870.68 1262.45 3873.85 1263.81 3874.9 1264.35 3877.01 1262.45 3879.12 1260.56 3881.75 1254.87 3883.33 1251.07 3884.91 1247.28 3885.31 1242.81 3886.5 1239.7 3887.68 1236.58 3889.79 1234.96 3890.45 1232.38 3891.11 1229.81 3891.9 1228.59 3890.45 1224.26 3889 1219.92 3884.39 1211.12 3881.75 1206.38 3879.12 1201.64 3877.27 1198.66 3874.64 1195.81 3872 1192.97 3869.76 1189.04 3865.94 1189.31 3862.12 1189.58 3855.53 1198.12 3851.71 1197.44 3847.89 1196.76 3842.62 1189.31 3843.01 1185.25 3843.41 1181.19 3849.73 1175.91 3854.08 1173.06 3858.43 1170.22 3864.23 1167.78 3869.1 1168.18 3873.98 1168.59 3879.38 1172.38 3883.33 1175.5 3887.29 1178.61 3890.58 1183.35 3892.82 1186.88 3895.06 1190.4 3894.53 1192.7 3896.77 1196.63 3899.01 1200.56 3903.36 1207.19 3906.26 1210.44 3909.16 1213.69 3910.48 1217.21 3913.38 1217.76Z" stroke="#7F7F7F" stroke-width="6.875" stroke-linecap="butt" stroke-linejoin="miter" stroke-miterlimit="8" stroke-opacity="1" fill="none" fill-rule="evenodd"/><path d="M3768.5 1156.5C3747.08 1162.23 3711.72 1173.86 3687.09 1210.87 3662.47 1247.88 3683.51 1352.18 3620.76 1378.57 3558.01 1404.96 3402.7 1370.57 3310.59 1369.21 3218.48 1367.85 3125.77 1377.32 3068.09 1370.39 3026.83 1361.47 2972.42 1346.47 2964.5 1327.63" stroke="#7F7F7F" stroke-width="6.875" stroke-linecap="butt" stroke-linejoin="miter" stroke-miterlimit="8" stroke-opacity="1" fill="none" fill-rule="evenodd"/></g></svg>